<svg xmlns="http://www.w3.org/2000/svg" xmlns:xlink="http://www.w3.org/1999/xlink" zoomAndPan="magnify" preserveAspectRatio="xMidYMid meet" version="1.0" viewBox="603 306.75 234.15 196.5"><defs><clipPath id="97ec977aa2"><path d="M 603 340 L 813 340 L 813 503.25 L 603 503.25 Z M 603 340 " clip-rule="nonzero"/></clipPath><clipPath id="41e68e9475"><path d="M 645 318.75 L 665 318.75 L 665 362 L 645 362 Z M 645 318.75 " clip-rule="nonzero"/></clipPath><clipPath id="4ae820438c"><path d="M 751 318.75 L 771 318.75 L 771 362 L 751 362 Z M 751 318.75 " clip-rule="nonzero"/></clipPath><clipPath id="dff062aded"><path d="M 777.152344 306.75 L 837.152344 306.75 L 837.152344 366.75 L 777.152344 366.75 Z M 777.152344 306.75 " clip-rule="nonzero"/></clipPath></defs><g clip-path="url(#97ec977aa2)"><path fill="#915c37" d="M 793.550781 340.179688 L 774.652344 340.179688 L 774.652344 351.441406 C 774.652344 359.144531 768.648438 365.453125 760.996094 365.453125 C 753.300781 365.453125 747.296875 359.144531 747.296875 351.441406 L 747.296875 340.179688 L 668.660156 340.179688 L 668.660156 351.441406 C 668.660156 359.144531 662.65625 365.453125 654.960938 365.453125 C 647.265625 365.453125 641.304688 359.144531 641.304688 351.441406 L 641.304688 340.179688 L 622.492188 340.179688 C 611.75 340.179688 603 347.925781 603 358.722656 L 603 482.75 C 603 493.546875 611.75 503.199219 622.53125 503.199219 L 793.59375 503.199219 C 804.375 503.199219 813 493.546875 813 482.75 L 813 358.722656 C 812.957031 347.925781 804.332031 340.179688 793.550781 340.179688 Z M 796.679688 484.824219 L 619.363281 484.824219 L 619.363281 396.480469 L 796.679688 396.480469 Z M 796.679688 484.824219 " fill-opacity="1" fill-rule="nonzero"/></g><g clip-path="url(#41e68e9475)"><path fill="#915c37" d="M 654.75 361.558594 C 660.035156 361.558594 664.347656 357.238281 664.347656 351.949219 L 664.347656 328.410156 C 664.347656 323.121094 660.035156 318.800781 654.75 318.800781 C 649.464844 318.800781 645.152344 323.121094 645.152344 328.410156 L 645.152344 351.949219 C 645.152344 357.238281 649.464844 361.558594 654.75 361.558594 Z M 654.75 361.558594 " fill-opacity="1" fill-rule="nonzero"/></g><g clip-path="url(#4ae820438c)"><path fill="#915c37" d="M 760.953125 361.558594 C 766.238281 361.558594 770.550781 357.238281 770.550781 351.949219 L 770.550781 328.410156 C 770.550781 323.121094 766.238281 318.800781 760.953125 318.800781 C 755.667969 318.800781 751.355469 323.121094 751.355469 328.410156 L 751.355469 351.949219 C 751.398438 357.238281 755.710938 361.558594 760.953125 361.558594 Z M 760.953125 361.558594 " fill-opacity="1" fill-rule="nonzero"/></g><path fill="#915c37" d="M 663.207031 471.363281 L 663.207031 463.195312 L 670.644531 456.421875 C 683.246094 445.117188 689.375 438.640625 689.546875 431.910156 C 689.546875 427.210938 686.710938 423.488281 680.03125 423.488281 C 675.042969 423.488281 670.730469 425.984375 667.6875 428.269531 L 663.882812 418.578125 C 668.238281 415.277344 674.957031 412.609375 682.78125 412.609375 C 695.84375 412.609375 703.03125 420.269531 703.03125 430.726562 C 703.03125 440.421875 696.015625 448.125 687.683594 455.617188 L 682.359375 460.0625 L 682.359375 460.230469 L 704.089844 460.230469 L 704.089844 471.320312 L 663.207031 471.320312 Z M 663.207031 471.363281 " fill-opacity="1" fill-rule="nonzero"/><path fill="#915c37" d="M 714.488281 461.585938 C 716.179688 461.753906 717.703125 461.753906 720.367188 461.585938 C 724.46875 461.332031 728.609375 460.148438 731.738281 458.03125 C 735.460938 455.449219 737.953125 451.722656 739.011719 447.363281 L 738.757812 447.277344 C 736.179688 449.945312 732.457031 451.46875 727.214844 451.46875 C 717.449219 451.46875 709.203125 444.609375 709.203125 433.433594 C 709.203125 422.132812 718.253906 412.652344 730.9375 412.652344 C 745.777344 412.652344 752.753906 424.039062 752.753906 437.542969 C 752.753906 449.519531 748.945312 458.328125 742.648438 464.125 C 737.152344 469.121094 729.582031 471.871094 720.621094 472.210938 C 718.292969 472.378906 716.011719 472.296875 714.488281 472.210938 Z M 722.648438 432.589844 C 722.648438 437.585938 725.3125 441.816406 730.808594 441.816406 C 734.445312 441.816406 737.023438 440.039062 738.25 438.007812 C 738.671875 437.203125 738.96875 436.3125 738.96875 434.621094 C 738.96875 428.484375 736.644531 422.429688 730.554688 422.429688 C 725.949219 422.472656 722.566406 426.535156 722.648438 432.589844 Z M 722.648438 432.589844 " fill-opacity="1" fill-rule="nonzero"/><g clip-path="url(#dff062aded)"><path fill="#543118" d="M 837.152344 336.75 C 837.152344 353.285156 823.726562 366.664062 807.152344 366.664062 C 790.582031 366.660156 777.152344 353.285156 777.152344 336.75 C 777.152344 320.230469 790.582031 306.835938 807.152344 306.835938 C 823.726562 306.835938 837.152344 320.230469 837.152344 336.75 Z M 837.152344 336.75 " fill-opacity="1" fill-rule="nonzero"/></g><path fill="#ffffff" d="M 791.667969 333.203125 L 823.492188 333.203125 L 823.492188 340.675781 L 791.667969 340.675781 Z M 791.667969 333.203125 " fill-opacity="1" fill-rule="nonzero"/><path fill="#ffffff" d="M 803.835938 321.074219 L 811.335938 321.074219 L 811.335938 352.800781 L 803.835938 352.800781 Z M 803.835938 321.074219 " fill-opacity="1" fill-rule="nonzero"/></svg>