<svg xmlns="http://www.w3.org/2000/svg" xmlns:xlink="http://www.w3.org/1999/xlink" zoomAndPan="magnify" preserveAspectRatio="xMidYMid meet" version="1.0" viewBox="678.02 379.2 83.98 51.72"><defs><clipPath id="282153c236"><path d="M 721 379.171875 L 762 379.171875 L 762 423 L 721 423 Z M 721 379.171875 " clip-rule="nonzero"/></clipPath><clipPath id="778a5f1817"><path d="M 678 379.171875 L 719 379.171875 L 719 423 L 678 423 Z M 678 379.171875 " clip-rule="nonzero"/></clipPath><clipPath id="cccdf82829"><path d="M 698 385 L 742 385 L 742 430.921875 L 698 430.921875 Z M 698 385 " clip-rule="nonzero"/></clipPath></defs><g clip-path="url(#282153c236)"><path fill="#141313" d="M 761.964844 416.65625 C 761.828125 412.886719 759.742188 409.460938 756.320312 406.929688 C 754.738281 405.765625 752.871094 404.789062 750.78125 404.0625 C 753.839844 401.480469 755.789062 397.609375 755.789062 393.273438 C 755.789062 385.503906 749.53125 379.207031 741.804688 379.207031 C 734.082031 379.207031 727.820312 385.503906 727.820312 393.273438 C 727.820312 397.609375 729.769531 401.480469 732.832031 404.0625 C 730.738281 404.789062 728.875 405.765625 727.296875 406.929688 C 723.871094 409.457031 721.792969 412.886719 721.648438 416.65625 C 721.597656 417.984375 721.742188 419.097656 722.046875 420.046875 C 727.277344 421.347656 734.207031 422.140625 741.804688 422.140625 C 749.425781 422.140625 756.367188 421.34375 761.601562 420.039062 C 761.882812 419.089844 762.015625 417.976562 761.964844 416.65625 " fill-opacity="1" fill-rule="nonzero"/></g><g clip-path="url(#778a5f1817)"><path fill="#141313" d="M 718.378906 416.65625 C 718.238281 412.886719 716.15625 409.460938 712.730469 406.929688 C 711.152344 405.765625 709.285156 404.789062 707.191406 404.0625 C 710.253906 401.480469 712.203125 397.609375 712.203125 393.273438 C 712.203125 385.503906 705.941406 379.207031 698.21875 379.207031 C 690.496094 379.207031 684.234375 385.503906 684.234375 393.273438 C 684.234375 397.609375 686.183594 401.480469 689.246094 404.0625 C 687.152344 404.789062 685.289062 405.765625 683.707031 406.929688 C 680.285156 409.457031 678.203125 412.886719 678.058594 416.65625 C 678.007812 417.984375 678.152344 419.097656 678.460938 420.046875 C 683.691406 421.347656 690.621094 422.140625 698.21875 422.140625 C 705.835938 422.140625 712.78125 421.34375 718.015625 420.039062 C 718.296875 419.089844 718.425781 417.976562 718.378906 416.65625 " fill-opacity="1" fill-rule="nonzero"/></g><g clip-path="url(#cccdf82829)"><path fill="#000000" d="M 741.441406 425.082031 C 741.296875 421.070312 739.078125 417.429688 735.441406 414.742188 C 733.761719 413.5 731.777344 412.464844 729.550781 411.691406 C 732.808594 408.949219 734.878906 404.832031 734.878906 400.222656 C 734.878906 391.964844 728.222656 385.269531 720.011719 385.269531 C 711.800781 385.269531 705.144531 391.964844 705.144531 400.222656 C 705.144531 404.832031 707.21875 408.949219 710.472656 411.691406 C 708.25 412.464844 706.265625 413.5 704.585938 414.742188 C 700.949219 417.429688 698.734375 421.070312 698.582031 425.082031 C 698.527344 426.488281 698.683594 427.675781 699.007812 428.683594 C 704.570312 430.066406 711.933594 430.910156 720.011719 430.910156 C 728.109375 430.910156 735.492188 430.0625 741.058594 428.675781 C 741.355469 427.664062 741.492188 426.484375 741.441406 425.082031 " fill-opacity="1" fill-rule="nonzero"/></g></svg>