<svg xmlns="http://www.w3.org/2000/svg" xmlns:xlink="http://www.w3.org/1999/xlink" zoomAndPan="magnify" preserveAspectRatio="xMidYMid meet" version="1.0" viewBox="607.5 289.74 225.11 230.76"><defs><clipPath id="fe6624f869"><path d="M 748.453125 289.738281 L 832.5 289.738281 L 832.5 388 L 748.453125 388 Z M 748.453125 289.738281 " clip-rule="nonzero"/></clipPath><clipPath id="87a8759c1b"><path d="M 607.5 423 L 775 423 L 775 520.5 L 607.5 520.5 Z M 607.5 423 " clip-rule="nonzero"/></clipPath></defs><g clip-path="url(#fe6624f869)"><path fill="#814a23" d="M 791.5 289.738281 C 760.300781 289.738281 748.941406 312.539062 748.941406 327.84375 L 748.941406 330.015625 C 748.941406 332.695312 751.121094 334.640625 753.527344 334.640625 L 766.84375 334.640625 C 769.496094 334.640625 771.433594 332.449219 771.433594 330.015625 L 771.433594 327.84375 C 771.433594 327.109375 771.679688 312.3125 791.5 312.3125 C 804.304688 312.3125 809.871094 317.164062 809.871094 328.316406 C 809.871094 335.601562 801.410156 343.132812 793.679688 349.683594 C 783.035156 358.398438 777.957031 367.628906 777.957031 378.066406 L 777.957031 383.164062 C 777.957031 385.824219 780.140625 387.769531 782.546875 387.769531 L 795.84375 387.769531 C 798.515625 387.769531 800.453125 385.578125 800.453125 383.164062 L 800.453125 378.066406 C 800.453125 376.859375 800.453125 373.464844 807.933594 367.140625 C 817.132812 359.628906 832.609375 347 832.609375 328.316406 C 832.367188 309.632812 821.71875 289.738281 791.5 289.738281 " fill-opacity="1" fill-rule="nonzero"/></g><path fill="#814a23" d="M 804.082031 412.511719 C 804.082031 420.554688 797.578125 427.082031 789.5625 427.082031 C 781.546875 427.082031 775.0625 420.554688 775.0625 412.511719 C 775.0625 404.488281 781.546875 397.960938 789.5625 397.960938 C 797.578125 397.960938 804.082031 404.488281 804.082031 412.511719 " fill-opacity="1" fill-rule="nonzero"/><path fill="#814a23" d="M 732.75 370.535156 C 732.75 395.871094 714.027344 416.398438 690.925781 416.398438 C 667.820312 416.398438 649.078125 395.871094 649.078125 370.535156 C 649.078125 345.21875 667.820312 324.671875 690.925781 324.671875 C 714.027344 324.671875 732.75 345.21875 732.75 370.535156 " fill-opacity="1" fill-rule="nonzero"/><g clip-path="url(#87a8759c1b)"><path fill="#814a23" d="M 744.109375 429.496094 L 730.078125 423.195312 C 719.207031 432.179688 705.667969 437.765625 690.925781 437.765625 C 676.160156 437.765625 662.621094 432.421875 651.75 423.195312 L 637.722656 429.496094 C 619.347656 437.765625 607.5 456.203125 607.5 476.585938 L 607.5 501.332031 C 607.5 511.769531 615.960938 520.261719 626.363281 520.261719 L 755.710938 520.261719 C 766.109375 520.261719 774.574219 511.769531 774.574219 501.332031 L 774.574219 476.585938 C 774.328125 456.203125 762.480469 437.988281 744.109375 429.496094 " fill-opacity="1" fill-rule="nonzero"/></g></svg>