<svg xmlns="http://www.w3.org/2000/svg" xmlns:xlink="http://www.w3.org/1999/xlink" zoomAndPan="magnify" preserveAspectRatio="xMidYMid meet" version="1.0" viewBox="49.53 140.29 276 87.27"><defs><g/><clipPath id="6be9cabda4"><path d="M 49.527344 140.289062 L 325.527344 140.289062 L 325.527344 216.039062 L 49.527344 216.039062 Z M 49.527344 140.289062 " clip-rule="nonzero"/></clipPath></defs><g clip-path="url(#6be9cabda4)"><path fill="#bda18e" d="M 235.738281 140.304688 L 235.738281 151.777344 L 234.589844 151.777344 L 233.441406 162.105469 L 232.292969 162.105469 L 232.292969 172.433594 L 231.144531 172.433594 L 231.144531 205.714844 L 223.109375 205.714844 L 223.109375 201.125 L 218.515625 201.125 L 218.515625 193.09375 L 209.332031 193.09375 L 209.332031 199.980469 L 208.183594 199.980469 L 208.183594 203.421875 L 203.59375 203.421875 L 203.59375 189.648438 L 201.296875 189.648438 L 201.296875 186.207031 L 194.410156 186.207031 L 194.410156 160.960938 L 185.222656 160.960938 L 185.222656 164.402344 L 182.929688 164.402344 L 182.929688 173.582031 L 180.632812 173.582031 L 180.632812 163.253906 L 172.59375 163.253906 L 172.59375 170.140625 L 171.449219 170.140625 L 171.449219 179.320312 L 170.300781 179.320312 L 170.300781 186.207031 L 165.707031 186.207031 L 165.707031 178.171875 L 164.558594 178.171875 L 164.558594 174.730469 L 161.113281 174.730469 L 161.113281 167.84375 L 154.226562 167.84375 L 154.226562 156.371094 L 153.078125 156.371094 L 153.078125 167.84375 L 146.191406 167.84375 L 146.191406 177.027344 L 137.007812 177.027344 L 137.007812 181.617188 L 133.5625 181.617188 L 133.5625 175.878906 L 119.785156 175.878906 L 119.785156 182.765625 L 116.339844 182.765625 L 116.339844 185.058594 L 115.191406 185.058594 L 115.191406 190.796875 L 111.75 190.796875 L 111.75 175.878906 L 108.304688 175.878906 L 108.304688 167.84375 L 106.007812 166.46875 L 106.007812 152.925781 L 104.859375 152.925781 L 104.859375 165.777344 L 102.566406 164.402344 L 102.566406 170.140625 L 97.972656 172.433594 L 97.972656 185.058594 L 96.824219 185.058594 L 96.824219 193.09375 L 93.378906 193.09375 L 93.378906 186.207031 L 91.085938 177.027344 L 88.789062 186.207031 L 88.789062 188.503906 L 84.195312 188.503906 L 84.195312 199.980469 L 80.75 199.980469 L 80.75 177.027344 L 69.269531 177.027344 L 69.269531 195.386719 L 63.53125 195.386719 L 63.53125 190.796875 L 62.382812 190.796875 L 62.382812 183.910156 L 53.199219 183.910156 L 53.199219 189.648438 L 49.753906 189.648438 L 49.753906 216.046875 L 325.285156 216.046875 L 325.285156 181.617188 L 312.65625 181.617188 L 312.65625 194.242188 L 303.472656 194.242188 L 303.472656 189.648438 L 295.4375 189.648438 L 295.4375 182.765625 L 290.84375 182.765625 L 290.84375 170.140625 L 277.066406 172.433594 L 277.066406 189.648438 L 264.441406 189.648438 L 264.441406 191.945312 L 262.144531 191.945312 L 262.144531 183.910156 L 251.8125 183.910156 L 251.8125 198.832031 L 248.367188 198.832031 L 248.367188 194.242188 L 241.480469 194.242188 L 241.480469 172.433594 L 240.332031 172.433594 L 240.332031 162.105469 L 239.183594 162.105469 L 238.035156 151.777344 L 236.886719 151.777344 L 236.886719 140.304688 Z M 235.738281 140.304688 " fill-opacity="1" fill-rule="evenodd"/></g><g fill="#915c37" fill-opacity="1"><g transform="translate(79.325631, 192.374987)"><g><path d="M 5.558594 0.703125 L 5.558594 0.585938 L 5.964844 0.175781 C 6.257812 -0.117188 6.609375 -0.46875 7.019531 -0.9375 C 7.429688 -1.402344 7.898438 -1.929688 8.363281 -2.515625 C 8.832031 -3.101562 9.242188 -3.683594 9.652344 -4.269531 C 9.769531 -4.445312 9.886719 -4.679688 10.0625 -5.03125 C 10.234375 -5.382812 10.410156 -5.730469 10.644531 -6.140625 C 10.878906 -6.550781 11.113281 -6.960938 11.40625 -7.429688 C 11.699219 -7.898438 11.992188 -8.246094 12.285156 -8.539062 C 12.226562 -8.539062 12.109375 -8.480469 11.933594 -8.421875 C 11.933594 -8.480469 11.933594 -8.539062 11.875 -8.597656 C 11.992188 -8.65625 12.050781 -8.714844 12.109375 -8.832031 C 11.992188 -8.832031 11.933594 -8.832031 11.933594 -8.890625 C 11.933594 -8.949219 11.933594 -9.007812 11.875 -9.066406 C 11.992188 -9.125 12.109375 -9.183594 12.226562 -9.242188 C 12.34375 -9.300781 12.402344 -9.359375 12.457031 -9.417969 C 12.457031 -9.359375 12.515625 -9.359375 12.574219 -9.359375 C 12.632812 -9.359375 12.75 -9.359375 12.925781 -9.417969 C 13.101562 -9.476562 13.277344 -9.535156 13.453125 -9.59375 C 13.570312 -9.59375 13.6875 -9.59375 13.804688 -9.59375 C 13.921875 -9.59375 14.039062 -9.59375 14.15625 -9.59375 L 14.738281 -9.710938 L 15.324219 -9.828125 C 15.265625 -9.828125 15.5 -9.886719 16.085938 -10.003906 C 16.671875 -10.121094 17.3125 -10.175781 18.074219 -10.175781 C 17.664062 -8.949219 17.195312 -7.78125 16.671875 -6.667969 C 16.144531 -5.558594 15.617188 -4.503906 15.089844 -3.507812 C 15.148438 -3.566406 15.089844 -3.449219 14.972656 -3.21875 C 14.855469 -2.984375 14.738281 -2.691406 14.625 -2.398438 C 14.507812 -2.105469 14.390625 -1.753906 14.273438 -1.402344 C 14.15625 -1.054688 14.097656 -0.820312 14.097656 -0.644531 C 14.097656 -0.46875 14.15625 -0.292969 14.273438 -0.175781 C 14.390625 -0.0585938 14.449219 0.117188 14.449219 0.292969 C 14.390625 0.292969 14.332031 0.292969 14.273438 0.351562 C 14.214844 0.410156 14.097656 0.46875 13.921875 0.527344 C 13.980469 0.585938 13.980469 0.761719 13.980469 0.996094 C 13.980469 1.113281 13.980469 1.167969 13.921875 1.167969 L 13.746094 1.167969 C 13.570312 1.167969 13.453125 1.285156 13.453125 1.460938 C 13.453125 1.578125 13.570312 1.695312 13.804688 1.871094 C 14.039062 2.046875 14.332031 2.222656 14.679688 2.398438 C 15.03125 2.574219 15.382812 2.75 15.792969 2.867188 C 16.203125 2.984375 16.554688 3.042969 16.90625 3.042969 C 16.960938 3.042969 17.019531 3.042969 17.136719 2.984375 C 17.253906 2.925781 17.371094 2.925781 17.488281 2.925781 C 17.546875 2.925781 17.664062 2.925781 17.78125 2.984375 C 17.898438 3.042969 18.015625 3.042969 18.132812 3.042969 C 18.308594 3.042969 18.601562 2.925781 18.953125 2.691406 C 19.300781 2.457031 19.652344 2.28125 19.945312 2.105469 L 20.003906 2.164062 C 19.945312 2.222656 19.945312 2.28125 19.945312 2.339844 C 19.945312 2.515625 20.121094 2.632812 20.472656 2.632812 L 20.589844 2.515625 C 20.765625 2.691406 20.882812 2.808594 20.941406 2.867188 C 21.351562 2.339844 21.699219 1.929688 21.992188 1.636719 C 22.285156 1.34375 22.460938 0.996094 22.578125 0.585938 C 22.636719 0.527344 22.695312 0.351562 22.8125 0.0585938 C 22.929688 -0.234375 23.046875 -0.527344 23.222656 -0.878906 C 23.398438 -1.226562 23.515625 -1.578125 23.632812 -1.929688 C 23.746094 -2.28125 23.804688 -2.574219 23.804688 -2.808594 C 23.804688 -2.867188 23.863281 -3.101562 23.980469 -3.507812 C 24.097656 -3.917969 24.273438 -4.386719 24.507812 -4.914062 C 24.742188 -5.441406 24.976562 -5.964844 25.210938 -6.492188 C 25.445312 -7.019531 25.679688 -7.488281 25.914062 -7.839844 C 26.144531 -8.1875 26.261719 -8.421875 26.320312 -8.480469 C 26.378906 -8.539062 26.4375 -8.597656 26.4375 -8.65625 C 26.4375 -8.714844 26.4375 -8.832031 26.4375 -9.007812 C 26.4375 -9.183594 26.496094 -9.476562 26.671875 -9.886719 C 26.847656 -10.292969 27.082031 -10.9375 27.433594 -11.757812 C 27.785156 -12.574219 28.308594 -13.6875 28.953125 -15.089844 C 29.363281 -15.5 29.65625 -16.144531 29.890625 -17.078125 C 30.125 -18.015625 30.472656 -18.953125 30.882812 -19.828125 C 31.761719 -21.757812 32.582031 -23.515625 33.28125 -25.152344 C 33.984375 -26.789062 34.335938 -28.425781 34.335938 -30.066406 C 34.335938 -30.125 34.277344 -30.359375 34.160156 -30.765625 C 34.042969 -31.175781 33.867188 -31.410156 33.691406 -31.46875 C 33.691406 -31.527344 33.75 -31.527344 33.867188 -31.527344 C 33.691406 -32.171875 33.515625 -32.582031 33.339844 -32.753906 C 33.164062 -32.929688 32.988281 -33.164062 32.8125 -33.457031 L 32.988281 -33.457031 C 33.105469 -33.457031 33.222656 -33.398438 33.339844 -33.339844 L 33.691406 -33.105469 C 33.691406 -33.164062 33.691406 -33.222656 33.75 -33.28125 C 33.457031 -33.398438 33.222656 -33.515625 33.046875 -33.574219 C 32.871094 -33.632812 32.699219 -33.808594 32.523438 -34.101562 C 32.464844 -34.042969 32.40625 -33.984375 32.347656 -33.925781 C 32.289062 -33.867188 32.230469 -33.867188 32.171875 -33.867188 C 32.230469 -33.867188 32.171875 -33.925781 32.054688 -33.984375 C 31.9375 -34.042969 31.820312 -34.101562 31.644531 -34.21875 C 31.46875 -34.335938 31.292969 -34.453125 31.175781 -34.570312 C 31.058594 -34.6875 31 -34.804688 31 -34.863281 C 31 -34.921875 31 -34.976562 31.058594 -35.035156 C 30.765625 -35.09375 30.589844 -35.152344 30.53125 -35.152344 C 30.417969 -35.152344 30.300781 -35.152344 30.183594 -35.152344 C 30.066406 -35.152344 29.949219 -35.152344 29.832031 -35.152344 C 29.539062 -35.152344 29.246094 -35.152344 28.953125 -35.152344 C 28.660156 -35.152344 28.367188 -35.152344 28.078125 -35.152344 C 27.140625 -34.976562 26.4375 -34.804688 26.027344 -34.628906 C 25.621094 -34.453125 25.269531 -34.21875 25.035156 -33.984375 C 24.800781 -33.75 24.566406 -33.457031 24.390625 -33.105469 C 24.214844 -32.753906 23.921875 -32.347656 23.515625 -31.9375 C 22.167969 -30.589844 21.058594 -29.246094 20.179688 -27.84375 C 19.300781 -26.4375 18.542969 -25.210938 17.898438 -24.15625 C 17.957031 -24.15625 17.957031 -24.15625 17.957031 -24.15625 C 17.957031 -24.15625 18.015625 -24.15625 18.074219 -24.15625 C 17.78125 -23.980469 17.488281 -23.746094 17.253906 -23.398438 C 17.019531 -23.046875 16.730469 -22.636719 16.4375 -22.226562 C 16.144531 -21.816406 15.851562 -21.351562 15.617188 -20.882812 C 15.382812 -20.414062 15.089844 -20.003906 14.796875 -19.652344 C 14.796875 -19.710938 14.738281 -19.652344 14.679688 -19.476562 C 14.625 -19.300781 14.507812 -19.070312 14.332031 -18.835938 C 14.15625 -18.601562 13.980469 -18.367188 13.746094 -18.132812 C 13.511719 -17.898438 13.277344 -17.722656 12.984375 -17.664062 C 13.042969 -17.605469 13.101562 -17.546875 13.160156 -17.546875 C 13.101562 -17.488281 13.042969 -17.429688 12.984375 -17.371094 L 12.867188 -17.136719 C 12.457031 -15.792969 11.816406 -14.679688 10.9375 -13.863281 C 10.0625 -13.042969 9.066406 -12.632812 7.953125 -12.632812 C 7.3125 -12.632812 6.726562 -12.691406 6.140625 -12.808594 C 5.558594 -12.925781 4.972656 -13.042969 4.328125 -13.101562 C 4.035156 -13.101562 3.742188 -13.101562 3.507812 -13.101562 C 3.277344 -13.101562 3.042969 -12.984375 2.867188 -12.808594 C 2.925781 -12.867188 2.925781 -12.867188 2.808594 -12.808594 C 2.691406 -12.75 2.574219 -12.632812 2.398438 -12.457031 C 2.222656 -12.285156 2.046875 -12.109375 1.929688 -11.933594 C 1.8125 -11.757812 1.753906 -11.582031 1.753906 -11.40625 C 1.753906 -11.054688 1.871094 -10.761719 2.105469 -10.46875 C 2.339844 -10.175781 2.515625 -9.828125 2.691406 -9.417969 C 2.808594 -9.242188 2.925781 -9.007812 3.042969 -8.714844 C 3.160156 -8.421875 3.335938 -8.128906 3.566406 -7.839844 C 3.800781 -7.546875 4.035156 -7.3125 4.328125 -7.078125 C 4.621094 -6.84375 5.03125 -6.726562 5.5 -6.726562 L 5.671875 -6.726562 C 5.730469 -6.726562 5.789062 -6.726562 5.847656 -6.667969 C 5.089844 -5.671875 4.503906 -4.796875 4.09375 -4.035156 C 3.683594 -3.277344 3.101562 -2.515625 2.339844 -1.753906 C 2.339844 -1.8125 2.339844 -1.8125 2.28125 -1.8125 C 2.339844 -1.871094 2.398438 -1.929688 2.457031 -1.988281 C 2.515625 -2.046875 2.574219 -2.105469 2.632812 -2.164062 C 2.457031 -1.988281 2.28125 -1.695312 2.105469 -1.34375 C 1.929688 -0.996094 1.753906 -0.761719 1.578125 -0.585938 C 1.578125 -0.644531 1.519531 -0.585938 1.460938 -0.46875 C 1.402344 -0.351562 1.285156 -0.234375 1.167969 -0.117188 C 1.054688 0 0.9375 0.117188 0.820312 0.234375 L 0.644531 0.410156 L 0.644531 0.46875 C 0.644531 0.527344 0.585938 0.585938 0.527344 0.585938 C 0.46875 0.585938 0.410156 0.644531 0.351562 0.703125 C 0.351562 0.761719 0.410156 0.820312 0.46875 0.878906 C 0.351562 0.9375 0.175781 1.113281 -0.117188 1.460938 C -0.410156 1.8125 -0.527344 2.164062 -0.527344 2.457031 C -0.527344 2.515625 -0.46875 2.574219 -0.292969 2.632812 C -0.351562 2.574219 -0.410156 2.457031 -0.46875 2.28125 L -0.234375 2.28125 C -0.292969 2.339844 -0.292969 2.457031 -0.292969 2.632812 C -0.175781 2.515625 -0.117188 2.457031 -0.0585938 2.457031 C -0.0585938 2.632812 -0.175781 2.808594 -0.410156 2.984375 C -0.644531 3.160156 -0.761719 3.335938 -0.761719 3.507812 C -0.761719 3.683594 -0.703125 3.800781 -0.527344 3.859375 C -0.351562 3.917969 -0.234375 3.976562 -0.175781 3.976562 C -0.234375 3.976562 -0.175781 3.976562 0 3.917969 C 0.175781 3.859375 0.410156 3.800781 0.644531 3.742188 C 0.878906 3.683594 1.113281 3.625 1.34375 3.507812 C 1.578125 3.390625 1.753906 3.277344 1.871094 3.160156 L 2.164062 2.925781 C 2.398438 2.75 2.632812 2.574219 2.867188 2.398438 C 3.101562 2.222656 3.335938 2.105469 3.566406 1.988281 C 3.800781 1.871094 3.976562 1.8125 4.035156 1.8125 Z M 19.359375 -21.292969 L 19.183594 -21.292969 C 19.242188 -21.351562 19.300781 -21.464844 19.359375 -21.582031 C 19.417969 -21.699219 19.476562 -21.757812 19.59375 -21.757812 L 19.710938 -21.757812 C 19.769531 -21.875 19.828125 -21.992188 19.828125 -22.109375 C 19.828125 -22.226562 19.886719 -22.34375 19.945312 -22.460938 L 19.886719 -22.460938 L 20.003906 -22.519531 C 19.945312 -22.578125 19.886719 -22.636719 19.886719 -22.695312 C 19.886719 -22.8125 20.003906 -22.988281 20.238281 -23.222656 C 20.472656 -23.457031 20.589844 -23.632812 20.589844 -23.691406 C 20.589844 -23.632812 20.648438 -23.746094 20.824219 -24.039062 C 21 -24.332031 21.117188 -24.507812 21.175781 -24.566406 C 21.117188 -24.566406 21.058594 -24.566406 21 -24.566406 C 20.941406 -24.566406 20.882812 -24.566406 20.824219 -24.566406 C 20.824219 -24.625 20.882812 -24.742188 21.058594 -24.917969 C 21.234375 -25.09375 21.410156 -25.269531 21.582031 -25.503906 C 21.757812 -25.738281 21.933594 -25.96875 22.109375 -26.203125 C 22.285156 -26.4375 22.34375 -26.613281 22.34375 -26.730469 C 22.34375 -26.789062 22.34375 -26.847656 22.285156 -26.847656 C 22.226562 -26.847656 22.167969 -26.90625 22.109375 -26.964844 C 22.167969 -26.90625 22.226562 -26.90625 22.226562 -26.90625 C 22.226562 -26.90625 22.285156 -26.90625 22.34375 -26.847656 C 22.460938 -27.023438 22.578125 -27.199219 22.695312 -27.433594 C 22.8125 -27.667969 22.929688 -27.84375 22.988281 -28.019531 C 22.988281 -28.078125 22.988281 -28.136719 22.929688 -28.195312 C 22.871094 -28.195312 22.8125 -28.136719 22.753906 -28.078125 C 22.695312 -28.019531 22.636719 -27.960938 22.578125 -27.902344 C 22.636719 -27.960938 22.753906 -28.136719 22.871094 -28.367188 C 22.8125 -28.308594 22.753906 -28.308594 22.753906 -28.308594 C 22.753906 -28.308594 22.695312 -28.308594 22.636719 -28.25 C 22.695312 -28.367188 22.753906 -28.484375 22.753906 -28.601562 C 22.753906 -28.71875 22.8125 -28.777344 22.929688 -28.835938 C 22.929688 -28.777344 22.929688 -28.71875 22.929688 -28.71875 C 22.929688 -28.71875 22.929688 -28.660156 22.929688 -28.601562 C 22.988281 -28.601562 22.988281 -28.601562 22.988281 -28.601562 C 22.988281 -28.601562 23.046875 -28.601562 23.105469 -28.601562 C 23.046875 -28.425781 22.988281 -28.308594 22.988281 -28.25 C 23.105469 -28.25 23.164062 -28.25 23.164062 -28.308594 L 23.164062 -28.367188 C 23.339844 -28.542969 23.398438 -28.660156 23.398438 -28.71875 C 23.339844 -28.71875 23.28125 -28.71875 23.222656 -28.71875 C 23.164062 -28.71875 23.105469 -28.71875 23.046875 -28.71875 L 23.046875 -28.835938 C 23.046875 -28.894531 23.046875 -28.894531 23.105469 -28.894531 L 23.164062 -28.894531 C 23.222656 -28.894531 23.222656 -28.894531 23.222656 -28.894531 C 23.222656 -28.894531 23.222656 -28.894531 23.28125 -28.894531 C 23.28125 -28.953125 23.28125 -28.953125 23.28125 -28.953125 C 23.28125 -28.953125 23.28125 -28.953125 23.28125 -29.011719 C 23.28125 -29.070312 23.28125 -29.128906 23.222656 -29.1875 C 23.457031 -29.421875 23.632812 -29.597656 23.746094 -29.773438 C 23.863281 -29.949219 23.980469 -30.183594 24.15625 -30.472656 C 24.15625 -30.648438 24.15625 -30.765625 24.097656 -30.882812 C 24.15625 -30.824219 24.214844 -30.765625 24.273438 -30.707031 C 24.273438 -30.765625 24.273438 -30.765625 24.332031 -30.765625 C 24.273438 -30.824219 24.214844 -30.882812 24.15625 -30.941406 C 24.566406 -31.351562 24.859375 -31.585938 25.09375 -31.644531 C 25.328125 -31.703125 25.621094 -31.761719 26.027344 -31.761719 L 26.085938 -31.703125 C 26.085938 -31.644531 26.085938 -31.644531 26.144531 -31.644531 C 26.085938 -31.585938 26.027344 -31.527344 26.027344 -31.46875 C 26.027344 -31.410156 25.96875 -31.351562 25.855469 -31.351562 L 25.796875 -31.351562 C 25.738281 -31.351562 25.679688 -31.292969 25.621094 -31.234375 C 25.621094 -31.175781 25.679688 -31.117188 25.738281 -31.058594 C 25.679688 -31.058594 25.503906 -30.765625 25.210938 -30.242188 C 24.917969 -29.714844 24.625 -29.128906 24.332031 -28.484375 C 24.097656 -27.726562 23.804688 -26.964844 23.457031 -26.203125 C 23.105469 -25.445312 22.753906 -24.625 22.34375 -23.804688 C 21.933594 -22.929688 21.523438 -21.992188 21.175781 -21 C 20.824219 -20.003906 20.472656 -19.070312 20.0625 -18.191406 C 20.003906 -18.132812 19.886719 -17.78125 19.652344 -17.136719 C 19.417969 -16.496094 19.128906 -15.792969 18.835938 -15.03125 C 18.542969 -14.273438 18.25 -13.570312 17.957031 -12.984375 C 17.664062 -12.402344 17.429688 -12.109375 17.253906 -12.109375 C 16.960938 -12.109375 16.613281 -12.109375 16.203125 -12.109375 C 15.792969 -12.109375 15.382812 -12.109375 14.972656 -12.109375 C 14.566406 -12.109375 14.214844 -12.109375 13.921875 -12.109375 C 13.628906 -12.109375 13.453125 -12.167969 13.394531 -12.226562 C 13.570312 -12.457031 13.804688 -12.691406 14.097656 -12.925781 C 14.390625 -13.160156 14.625 -13.453125 14.796875 -13.746094 L 14.738281 -13.863281 L 15.441406 -14.566406 C 15.382812 -14.625 15.324219 -14.679688 15.265625 -14.679688 C 15.207031 -14.679688 15.207031 -14.679688 15.207031 -14.738281 C 15.207031 -14.679688 15.265625 -14.679688 15.324219 -14.796875 C 15.382812 -14.914062 15.5 -15.03125 15.617188 -15.207031 L 15.96875 -15.675781 C 16.085938 -15.851562 16.203125 -15.910156 16.320312 -15.910156 C 16.320312 -15.96875 16.261719 -16.027344 16.203125 -16.027344 C 16.144531 -16.027344 16.085938 -16.085938 16.085938 -16.144531 C 16.085938 -16.261719 16.144531 -16.4375 16.320312 -16.671875 C 16.496094 -16.90625 16.613281 -17.136719 16.671875 -17.3125 C 16.730469 -17.546875 17.019531 -18.015625 17.488281 -18.660156 C 17.957031 -19.300781 18.425781 -20.121094 18.953125 -21.117188 Z M 19.59375 -24.332031 C 19.652344 -24.390625 19.710938 -24.449219 19.769531 -24.507812 C 19.828125 -24.566406 19.886719 -24.625 19.945312 -24.683594 C 19.945312 -24.390625 19.828125 -24.214844 19.652344 -24.214844 Z M 4.035156 1.871094 C 3.859375 1.929688 3.742188 2.046875 3.683594 2.222656 C 3.625 2.398438 3.507812 2.515625 3.390625 2.632812 C 3.449219 2.632812 3.566406 2.574219 3.742188 2.398438 C 3.917969 2.222656 4.035156 2.046875 4.035156 1.871094 Z M 4.035156 1.871094 C 4.328125 1.871094 4.503906 1.695312 4.5625 1.34375 C 4.503906 1.519531 4.445312 1.578125 4.386719 1.578125 L 4.269531 1.578125 C 4.210938 1.578125 4.152344 1.636719 4.152344 1.695312 C 4.152344 1.753906 4.09375 1.8125 4.035156 1.871094 Z M 4.914062 0.996094 C 4.855469 1.113281 4.796875 1.226562 4.738281 1.285156 C 4.679688 1.34375 4.679688 1.402344 4.679688 1.460938 L 4.796875 1.460938 C 4.855469 1.460938 4.914062 1.402344 4.914062 1.34375 C 4.914062 1.167969 4.914062 1.054688 4.855469 0.996094 Z M 4.914062 0.996094 "/></g></g></g><g fill="#915c37" fill-opacity="1"><g transform="translate(107.984874, 192.374987)"><g><path d="M 24.15625 -7.3125 C 24.214844 -7.3125 24.039062 -7.078125 23.632812 -6.609375 C 23.222656 -6.140625 22.753906 -5.558594 22.226562 -4.914062 C 21.699219 -4.269531 21.175781 -3.625 20.648438 -2.984375 C 20.121094 -2.339844 19.710938 -1.871094 19.417969 -1.578125 C 17.957031 -0.234375 16.671875 0.410156 15.5 0.410156 L 15.207031 0.46875 C 15.03125 0.46875 14.796875 0.410156 14.566406 0.292969 C 14.332031 0.175781 14.097656 -0.0585938 13.863281 -0.410156 C 13.628906 -0.761719 13.511719 -1.34375 13.511719 -2.105469 C 13.570312 -2.691406 13.6875 -3.21875 13.863281 -3.625 C 14.039062 -4.035156 14.214844 -4.386719 14.390625 -4.738281 C 14.566406 -5.089844 14.738281 -5.382812 14.855469 -5.671875 C 14.972656 -5.964844 15.03125 -6.316406 15.03125 -6.667969 C 15.03125 -6.902344 15.148438 -7.195312 15.324219 -7.605469 C 15.5 -8.011719 15.734375 -8.480469 15.96875 -8.949219 C 16.203125 -9.417969 16.4375 -9.886719 16.671875 -10.351562 C 16.90625 -10.820312 17.078125 -11.171875 17.136719 -11.464844 C 17.195312 -11.757812 17.253906 -11.992188 17.3125 -12.226562 C 17.371094 -12.457031 17.371094 -12.691406 17.371094 -12.984375 C 17.371094 -13.746094 17.253906 -14.449219 16.960938 -15.03125 C 16.671875 -15.617188 16.320312 -16.085938 15.96875 -16.496094 C 15.617188 -16.90625 15.207031 -17.195312 14.796875 -17.371094 C 14.390625 -17.546875 14.097656 -17.664062 13.863281 -17.722656 C 13.746094 -17.722656 13.570312 -17.722656 13.335938 -17.78125 C 13.101562 -17.839844 12.867188 -17.898438 12.632812 -17.957031 C 12.402344 -18.015625 12.167969 -18.132812 11.992188 -18.25 C 11.816406 -18.367188 11.699219 -18.484375 11.699219 -18.660156 C 11.757812 -18.953125 11.816406 -19.183594 11.875 -19.417969 C 11.933594 -19.652344 11.992188 -19.886719 12.050781 -20.179688 C 12.109375 -20.472656 12.167969 -20.765625 12.285156 -21.117188 C 12.402344 -21.464844 12.515625 -21.992188 12.632812 -22.636719 C 12.632812 -23.222656 12.402344 -23.691406 11.933594 -23.980469 C 11.464844 -24.273438 10.996094 -24.449219 10.527344 -24.507812 L 10.527344 -24.449219 C 10.46875 -24.507812 10.292969 -24.507812 10.0625 -24.507812 C 9.828125 -24.507812 9.59375 -24.390625 9.359375 -24.214844 C 9.125 -24.039062 8.890625 -23.921875 8.65625 -23.921875 C 8.597656 -23.921875 8.539062 -23.921875 8.480469 -23.980469 C 8.421875 -24.039062 8.363281 -24.039062 8.304688 -24.039062 C 8.128906 -24.039062 7.898438 -23.863281 7.664062 -23.574219 C 7.429688 -23.28125 7.195312 -22.929688 7.019531 -22.519531 C 6.84375 -22.109375 6.667969 -21.757812 6.550781 -21.410156 C 6.433594 -21.058594 6.316406 -20.824219 6.257812 -20.707031 C 6.140625 -20.414062 6.082031 -20.0625 6.082031 -19.710938 L 6.082031 -18.601562 C 6.082031 -18.132812 6.140625 -17.664062 6.257812 -17.253906 C 6.375 -16.847656 6.550781 -16.4375 6.84375 -16.027344 C 6.902344 -15.96875 6.960938 -15.910156 6.960938 -15.851562 C 6.960938 -15.617188 6.902344 -15.5 6.84375 -15.5 L 5.671875 -11.113281 C 5.382812 -10.46875 4.972656 -9.769531 4.503906 -9.066406 C 4.035156 -8.363281 3.566406 -7.664062 3.160156 -7.019531 C 2.75 -6.375 2.398438 -5.789062 2.105469 -5.265625 C 1.8125 -4.738281 1.636719 -4.386719 1.636719 -4.210938 C 1.636719 -4.035156 1.695312 -3.976562 1.871094 -3.976562 C 2.046875 -3.976562 2.339844 -4.269531 2.808594 -4.855469 C 3.277344 -5.441406 3.742188 -6.082031 4.269531 -6.84375 C 4.796875 -7.605469 5.324219 -8.363281 5.789062 -9.125 C 6.257812 -9.886719 6.609375 -10.410156 6.84375 -10.761719 C 6.960938 -10.996094 7.136719 -11.289062 7.3125 -11.640625 C 7.488281 -11.992188 7.722656 -12.34375 7.953125 -12.691406 C 8.1875 -13.042969 8.421875 -13.335938 8.597656 -13.570312 C 8.773438 -13.804688 8.949219 -13.921875 9.066406 -13.921875 C 9.125 -13.921875 9.183594 -13.921875 9.242188 -13.921875 C 9.300781 -13.921875 9.359375 -13.921875 9.417969 -13.921875 C 9.242188 -13.160156 8.949219 -12.34375 8.597656 -11.523438 C 8.246094 -10.703125 7.898438 -9.886719 7.605469 -9.066406 C 7.3125 -8.246094 7.019531 -7.488281 6.785156 -6.726562 C 6.550781 -5.964844 6.433594 -5.265625 6.433594 -4.621094 C 6.433594 -4.445312 6.433594 -4.210938 6.492188 -3.976562 C 6.550781 -3.742188 6.550781 -3.507812 6.550781 -3.277344 C 6.550781 -3.042969 6.492188 -2.808594 6.433594 -2.574219 C 6.375 -2.339844 6.316406 -2.105469 6.316406 -1.871094 C 6.316406 -1.226562 6.433594 -0.527344 6.609375 0.234375 C 6.785156 0.996094 7.136719 1.695312 7.605469 2.339844 C 8.070312 2.984375 8.65625 3.507812 9.417969 3.917969 C 10.175781 4.328125 11.113281 4.5625 12.226562 4.5625 C 12.691406 4.5625 13.160156 4.445312 13.6875 4.269531 C 14.214844 4.09375 14.738281 3.859375 15.207031 3.566406 C 15.675781 3.277344 16.085938 2.984375 16.496094 2.691406 C 16.90625 2.398438 17.195312 2.164062 17.371094 1.988281 C 18.25 1.226562 18.894531 0.644531 19.242188 0.234375 C 19.59375 -0.175781 19.886719 -0.585938 20.0625 -0.996094 C 20.355469 -1.285156 20.707031 -1.636719 21.117188 -2.105469 C 21.523438 -2.574219 21.933594 -3.101562 22.34375 -3.625 C 22.753906 -4.152344 23.105469 -4.679688 23.398438 -5.207031 C 23.691406 -5.730469 23.863281 -6.140625 23.863281 -6.492188 C 23.863281 -6.726562 23.746094 -6.84375 23.574219 -6.84375 Z M 24.15625 -7.3125 "/></g></g></g><g fill="#915c37" fill-opacity="1"><g transform="translate(128.455755, 192.374987)"><g><path d="M 21.582031 -7.253906 C 21.523438 -7.253906 21.292969 -7.078125 20.941406 -6.667969 C 20.589844 -6.257812 20.0625 -5.671875 19.300781 -4.914062 L 16.554688 -2.164062 L 16.613281 -2.164062 L 16.261719 -1.8125 C 16.085938 -1.753906 15.851562 -1.636719 15.558594 -1.460938 C 15.265625 -1.285156 14.972656 -1.113281 14.738281 -0.9375 C 14.507812 -0.761719 14.273438 -0.585938 14.097656 -0.410156 C 13.921875 -0.234375 13.804688 -0.117188 13.746094 -0.0585938 L 12.457031 0.878906 L 11.992188 0.996094 C 12.867188 -0.234375 13.6875 -1.402344 14.449219 -2.515625 C 15.207031 -3.625 15.792969 -4.503906 16.203125 -5.089844 L 18.015625 -7.019531 C 18.308594 -7.3125 18.484375 -7.722656 18.484375 -8.1875 C 18.484375 -8.421875 18.425781 -8.65625 18.367188 -8.832031 C 18.308594 -9.007812 18.25 -9.183594 18.191406 -9.359375 L 17.898438 -9.945312 L 17.605469 -10.410156 C 17.371094 -10.820312 16.960938 -11.230469 16.4375 -11.640625 C 15.910156 -12.050781 15.382812 -12.457031 14.796875 -12.808594 C 14.214844 -13.160156 13.6875 -13.453125 13.277344 -13.6875 C 12.867188 -13.921875 12.632812 -14.039062 12.574219 -14.039062 C 12.285156 -14.039062 11.933594 -13.863281 11.582031 -13.511719 C 11.230469 -13.160156 10.878906 -12.75 10.585938 -12.285156 C 10.292969 -11.816406 10.003906 -11.347656 9.769531 -10.878906 C 9.535156 -10.410156 9.359375 -10.121094 9.242188 -9.945312 C 8.714844 -9.066406 8.011719 -8.304688 7.195312 -7.722656 C 6.375 -7.136719 5.671875 -6.667969 5.148438 -6.375 C 5.207031 -6.609375 5.324219 -6.84375 5.5 -7.136719 L 5.964844 -7.953125 C 6.140625 -8.246094 6.257812 -8.480469 6.375 -8.714844 C 6.492188 -8.949219 6.550781 -9.125 6.550781 -9.242188 C 6.726562 -9.535156 6.84375 -9.886719 6.960938 -10.292969 C 7.078125 -10.703125 7.195312 -11.054688 7.3125 -11.40625 C 7.429688 -11.757812 7.546875 -12.050781 7.664062 -12.34375 C 7.78125 -12.632812 7.898438 -12.808594 8.011719 -12.925781 C 8.597656 -13.394531 8.949219 -13.921875 9.125 -14.566406 C 9.300781 -15.207031 9.417969 -15.792969 9.535156 -16.378906 C 9.652344 -16.960938 9.828125 -17.488281 10.121094 -17.898438 C 10.410156 -18.308594 10.996094 -18.542969 11.875 -18.542969 C 12.050781 -18.542969 12.34375 -18.425781 12.691406 -18.191406 C 13.042969 -17.957031 13.21875 -17.839844 13.277344 -17.898438 C 13.21875 -17.957031 13.21875 -18.015625 13.21875 -18.074219 L 13.335938 -18.191406 C 13.394531 -17.957031 13.453125 -17.664062 13.511719 -17.371094 C 13.570312 -17.078125 13.628906 -16.90625 13.6875 -16.90625 C 13.746094 -16.90625 13.863281 -16.90625 13.980469 -16.90625 C 14.097656 -16.90625 14.15625 -16.960938 14.15625 -17.078125 C 14.15625 -17.136719 14.15625 -17.195312 14.097656 -17.195312 C 14.039062 -17.195312 13.980469 -17.195312 13.921875 -17.253906 C 14.097656 -17.3125 14.273438 -17.371094 14.390625 -17.429688 C 14.507812 -17.488281 14.566406 -17.605469 14.566406 -17.839844 C 14.566406 -18.425781 14.390625 -18.894531 14.097656 -19.242188 C 13.804688 -19.59375 13.511719 -19.828125 13.21875 -20.003906 C 12.808594 -20.179688 12.402344 -20.296875 11.933594 -20.355469 C 11.757812 -20.355469 11.582031 -20.355469 11.40625 -20.355469 C 11.230469 -20.355469 11.054688 -20.355469 10.878906 -20.355469 C 10.820312 -20.414062 10.761719 -20.472656 10.703125 -20.53125 C 10.644531 -20.589844 10.585938 -20.589844 10.527344 -20.589844 C 10.175781 -20.589844 9.769531 -20.472656 9.242188 -20.238281 C 8.714844 -20.003906 8.1875 -19.710938 7.722656 -19.417969 C 7.253906 -19.128906 6.84375 -18.835938 6.492188 -18.542969 C 6.140625 -18.25 5.90625 -18.015625 5.847656 -17.898438 C 4.855469 -16.90625 3.976562 -15.851562 3.21875 -14.679688 C 2.457031 -13.511719 1.8125 -12.402344 1.34375 -11.40625 C 0.878906 -10.410156 0.527344 -9.535156 0.292969 -8.832031 C 0.0585938 -8.128906 -0.0585938 -7.78125 -0.0585938 -7.722656 C -0.117188 -7.429688 -0.175781 -7.195312 -0.175781 -7.019531 C -0.175781 -6.316406 0 -5.789062 0.292969 -5.5 C 0.585938 -5.207031 0.9375 -4.972656 1.34375 -4.855469 C 1.753906 -4.738281 2.164062 -4.679688 2.632812 -4.679688 C 3.101562 -4.679688 3.449219 -4.621094 3.742188 -4.503906 C 3.976562 -4.445312 4.152344 -4.386719 4.210938 -4.386719 C 4.679688 -4.386719 5.089844 -4.5625 5.441406 -4.914062 C 5.789062 -5.265625 6.082031 -5.441406 6.316406 -5.441406 C 6.257812 -5.5 6.257812 -5.558594 6.257812 -5.617188 C 6.257812 -5.730469 6.316406 -5.847656 6.433594 -6.023438 C 6.550781 -6.199219 6.667969 -6.375 6.84375 -6.609375 C 7.019531 -6.84375 7.195312 -7.019531 7.371094 -7.195312 C 7.546875 -7.371094 7.664062 -7.488281 7.78125 -7.546875 C 7.546875 -6.84375 7.253906 -6.199219 6.960938 -5.558594 C 6.667969 -4.914062 6.433594 -4.269531 6.257812 -3.625 L 5.964844 -2.867188 C 5.789062 -2.339844 5.558594 -1.753906 5.265625 -1.113281 C 4.972656 -0.46875 4.679688 0.175781 4.386719 0.761719 C 4.09375 1.34375 3.859375 1.753906 3.683594 1.929688 C 3.042969 2.925781 2.515625 4.035156 2.105469 5.207031 C 1.695312 6.375 1.285156 7.546875 0.878906 8.65625 C 0.585938 9.652344 0.175781 10.644531 -0.292969 11.699219 C -0.761719 12.75 -1.226562 13.804688 -1.636719 14.855469 C -2.046875 15.910156 -2.398438 17.019531 -2.691406 18.132812 C -2.984375 19.242188 -3.160156 20.355469 -3.160156 21.464844 C -3.160156 21.992188 -3.21875 22.460938 -3.277344 22.929688 C -3.335938 23.398438 -3.390625 23.863281 -3.390625 24.332031 C -3.390625 26.261719 -3.101562 27.550781 -2.457031 28.195312 C -1.8125 28.835938 -1.113281 29.1875 -0.292969 29.1875 C 0.585938 29.1875 1.34375 29.070312 1.988281 28.835938 C 2.632812 28.601562 3.160156 28.308594 3.566406 28.019531 C 3.976562 27.726562 4.269531 27.433594 4.503906 27.140625 C 4.738281 26.847656 4.914062 26.613281 4.972656 26.496094 C 5.382812 25.855469 5.730469 25.09375 6.082031 24.214844 C 6.433594 23.339844 6.667969 22.460938 6.84375 21.582031 C 6.84375 21.523438 6.785156 21.351562 6.726562 21.117188 C 6.785156 21.058594 6.84375 20.882812 6.902344 20.648438 C 6.960938 20.414062 6.960938 20.355469 6.960938 20.414062 L 6.84375 20.355469 C 7.136719 19.476562 7.3125 18.542969 7.371094 17.546875 C 7.429688 16.554688 7.488281 15.558594 7.488281 14.566406 C 7.488281 14.273438 7.488281 14.039062 7.488281 13.921875 C 7.488281 13.804688 7.488281 13.746094 7.488281 13.6875 L 7.429688 13.511719 C 7.429688 13.453125 7.429688 13.335938 7.429688 13.160156 C 7.429688 12.285156 7.546875 11.523438 7.722656 10.878906 C 7.898438 10.234375 8.011719 9.652344 8.011719 9.125 C 7.953125 8.949219 7.898438 8.773438 7.839844 8.539062 C 7.78125 8.304688 7.722656 8.070312 7.722656 7.898438 C 7.722656 7.019531 7.953125 6.316406 8.421875 5.789062 C 8.890625 5.265625 9.417969 4.796875 10.0625 4.386719 C 10.703125 3.976562 11.347656 3.625 12.050781 3.277344 C 12.75 2.925781 13.335938 2.515625 13.863281 1.988281 C 14.039062 1.988281 14.097656 1.929688 14.097656 1.753906 C 14.097656 1.578125 14.214844 1.519531 14.390625 1.578125 C 14.390625 1.402344 14.390625 1.34375 14.332031 1.34375 C 14.507812 1.34375 14.625 1.34375 14.679688 1.402344 C 14.738281 1.34375 14.796875 1.285156 14.914062 1.226562 C 15.03125 1.167969 15.089844 1.113281 15.148438 1.054688 C 15.207031 1.113281 15.207031 1.167969 15.207031 1.226562 C 15.792969 0.761719 16.320312 0.234375 16.789062 -0.351562 C 17.253906 -0.9375 17.605469 -1.402344 17.898438 -1.695312 C 18.074219 -1.871094 18.367188 -2.164062 18.777344 -2.574219 C 19.183594 -2.984375 19.59375 -3.449219 20.003906 -3.976562 C 20.414062 -4.503906 20.765625 -5.03125 21.058594 -5.558594 C 21.351562 -6.082031 21.464844 -6.492188 21.464844 -6.785156 C 21.464844 -6.960938 21.410156 -7.078125 21.292969 -7.078125 Z M 6.433594 11.875 C 6.375 13.335938 6.199219 14.679688 5.90625 15.851562 C 5.617188 17.019531 5.382812 18.25 5.207031 19.59375 C 5.148438 20.238281 4.972656 20.941406 4.738281 21.699219 C 4.503906 22.460938 4.210938 23.222656 3.859375 23.921875 C 3.507812 24.625 3.160156 25.269531 2.75 25.855469 C 2.339844 26.4375 1.988281 26.90625 1.636719 27.257812 C 1.636719 26.847656 1.636719 26.554688 1.695312 26.320312 L 1.871094 25.679688 C 1.929688 25.445312 1.988281 25.152344 2.046875 24.800781 C 2.105469 24.449219 2.105469 23.921875 2.105469 23.222656 C 2.105469 22.636719 2.164062 21.933594 2.339844 21.175781 C 2.515625 20.414062 2.691406 19.769531 2.867188 19.300781 C 3.335938 17.839844 3.742188 16.613281 4.09375 15.617188 C 4.445312 14.625 4.796875 13.804688 5.089844 13.101562 C 5.382812 12.402344 5.617188 11.875 5.847656 11.464844 C 6.082031 11.054688 6.199219 10.761719 6.257812 10.585938 C 6.257812 10.761719 6.257812 10.996094 6.316406 11.230469 C 6.375 11.464844 6.375 11.699219 6.375 11.875 Z M 6.433594 11.875 "/></g></g></g><g fill="#915c37" fill-opacity="1"><g transform="translate(160.775781, 210.125187)"><g><path d="M -0.921875 -17.546875 C -1.136719 -16.410156 -1.136719 -14.949219 -1.136719 -13.539062 L -1.136719 -10.832031 C -1.136719 -10.613281 -1.082031 -10.398438 -1.082031 -10.179688 C -0.757812 -7.039062 0.0546875 -4.550781 1.734375 -1.894531 C 4.601562 1.734375 8.339844 3.792969 13.105469 3.792969 C 14.675781 3.683594 16.355469 3.519531 18.144531 2.597656 C 19.386719 2.21875 20.527344 1.570312 21.71875 0.8125 L 22.152344 0.164062 C 23.992188 -0.703125 25.238281 -1.679688 26.753906 -3.304688 C 26.863281 -3.574219 27.296875 -4.007812 27.457031 -4.117188 C 27.566406 -4.277344 27.675781 -4.441406 27.675781 -4.550781 C 28.757812 -5.523438 30.871094 -7.796875 31.355469 -9.261719 C 31.355469 -9.261719 31.464844 -9.421875 31.519531 -9.476562 L 31.574219 -9.585938 L 31.574219 -9.640625 C 32.007812 -10.234375 32.546875 -11.699219 32.710938 -12.078125 L 33.253906 -12.890625 C 33.308594 -12.945312 33.308594 -12.945312 33.308594 -12.996094 C 33.46875 -13.160156 33.578125 -13.484375 33.738281 -13.863281 C 34.066406 -14.839844 34.011719 -15.164062 33.792969 -15 C 33.738281 -15.164062 33.632812 -15.273438 33.414062 -15.273438 C 32.980469 -15.273438 32.277344 -14.675781 32.117188 -13.269531 C 31.898438 -12.617188 30.542969 -11.320312 29.460938 -9.476562 C 28.59375 -8.125 26.863281 -5.957031 25.671875 -4.765625 C 24.152344 -3.410156 22.53125 -1.679688 20.308594 -1.027344 C 19.226562 -0.488281 17.816406 0.433594 16.625 0.703125 C 15.707031 0.703125 14.570312 0.214844 13.808594 -0.269531 C 13.703125 -0.214844 13.484375 -0.324219 13.324219 -0.433594 C 9.371094 -1.082031 7.90625 -5.308594 7.636719 -8.828125 C 7.636719 -9.097656 7.636719 -9.316406 7.582031 -9.371094 C 7.367188 -10.453125 7.3125 -11.480469 7.367188 -12.566406 C 7.09375 -14.027344 7.527344 -14.839844 7.796875 -16.570312 C 8.015625 -17.492188 8.285156 -18.847656 8.558594 -20.363281 C 9.53125 -24.207031 10.886719 -28.054688 13.160156 -31.355469 C 13.269531 -31.683594 13.484375 -32.007812 13.539062 -32.277344 C 13.863281 -32.820312 14.296875 -33.359375 14.621094 -33.847656 C 15 -34.171875 15.378906 -34.714844 15.707031 -35.257812 C 15.921875 -35.851562 16.191406 -36.449219 16.355469 -36.773438 C 16.789062 -37.261719 17.382812 -37.855469 17.980469 -38.398438 C 18.957031 -39.046875 20.632812 -40.078125 21.769531 -40.078125 C 22.3125 -40.078125 23.449219 -40.402344 24.101562 -40.402344 C 24.207031 -40.402344 24.261719 -40.402344 24.316406 -40.402344 C 24.964844 -40.238281 24.535156 -38.9375 24.695312 -38.179688 C 24.859375 -37.746094 24.859375 -37.261719 24.75 -36.71875 C 24.640625 -35.90625 24.695312 -35.691406 24.535156 -35.257812 C 24.585938 -35.203125 24.371094 -34.769531 24.535156 -34.769531 C 24.535156 -34.171875 24.640625 -33.632812 24.804688 -33.199219 C 24.859375 -32.765625 24.914062 -32.496094 25.019531 -32.496094 C 25.347656 -31.898438 26.210938 -30.761719 27.132812 -30.816406 C 27.296875 -30.925781 28.703125 -31.25 29.082031 -31.84375 C 28.972656 -32.007812 29.027344 -32.546875 29.246094 -33.144531 L 29.40625 -33.359375 C 30.164062 -34.390625 30.761719 -37.316406 30.761719 -38.613281 C 30.761719 -39.480469 30.597656 -40.238281 30.273438 -40.890625 C 29.460938 -42.296875 26.863281 -42.40625 25.398438 -42.40625 C 24.152344 -43.542969 21.988281 -43.8125 20.363281 -43.8125 C 19.714844 -43.8125 19.007812 -43.707031 18.414062 -43.542969 C 16.03125 -43.378906 12.945312 -42.511719 11.046875 -40.941406 C 7.472656 -39.15625 4.550781 -34.769531 2.925781 -31.25 C 2.816406 -30.976562 2.761719 -30.707031 2.652344 -30.542969 C 1.300781 -28 0.542969 -25.074219 0.214844 -22.960938 C 0 -22.152344 -0.324219 -21.175781 -0.488281 -20.308594 L -0.597656 -19.28125 Z M -0.921875 -17.546875 "/></g></g></g><g fill="#915c37" fill-opacity="1"><g transform="translate(190.234669, 210.125187)"><g><path d="M 2.761719 -17.382812 C 2.597656 -16.898438 2.492188 -16.355469 2.4375 -16.03125 L 2.273438 -14.460938 C 2.058594 -12.996094 1.625 -12.78125 1.300781 -11.320312 C 1.300781 -10.886719 1.40625 -10.398438 1.40625 -9.964844 C 1.300781 -9.53125 1.082031 -9.097656 0.921875 -8.71875 L 0.378906 -7.417969 L 0.8125 -4.496094 C 0.867188 -4.0625 0.976562 -3.683594 1.246094 -3.25 C 1.082031 -2.597656 1.082031 -2.058594 1.082031 -1.625 C 1.300781 0.703125 3.03125 1.625 4.332031 1.625 C 6.011719 1.625 8.015625 -0.488281 9.53125 -2.492188 C 10.074219 -2.980469 10.34375 -3.683594 10.507812 -4.222656 C 10.667969 -4.710938 10.832031 -5.199219 11.15625 -5.578125 L 11.589844 -6.335938 C 12.023438 -7.039062 12.617188 -8.125 12.726562 -7.796875 C 12.78125 -7.796875 12.617188 -6.714844 12.457031 -5.742188 C 12.292969 -4.875 12.078125 -4.0625 12.292969 -3.953125 C 12.183594 -3.519531 12.183594 -3.03125 12.238281 -2.546875 C 12.402344 -0.648438 13.703125 1.570312 15.652344 1.839844 L 15.761719 1.839844 C 15.976562 1.894531 16.140625 1.949219 16.410156 1.949219 C 17.382812 1.949219 20.199219 0.648438 21.554688 -1.625 C 21.609375 -1.734375 21.769531 -1.894531 21.878906 -2.003906 C 21.988281 -2.167969 22.152344 -2.273438 22.203125 -2.546875 L 24.371094 -5.578125 C 24.75 -6.121094 24.964844 -6.714844 25.128906 -7.367188 C 25.777344 -8.230469 26.375 -9.207031 26.644531 -9.910156 C 26.539062 -10.453125 27.132812 -11.535156 27.457031 -12.132812 C 27.621094 -12.347656 27.78125 -12.566406 27.78125 -12.617188 L 27.730469 -12.617188 C 27.890625 -12.945312 27.945312 -13.160156 27.890625 -13.324219 C 27.835938 -13.703125 27.621094 -13.917969 27.296875 -13.917969 C 26.265625 -13.917969 25.398438 -11.425781 25.019531 -10.234375 L 24.859375 -9.800781 L 24.914062 -9.800781 C 24.207031 -8.609375 23.558594 -7.527344 22.800781 -6.335938 L 22.3125 -5.414062 C 20.527344 -2.925781 18.195312 -0.109375 17.332031 0 C 17.222656 -0.0546875 17.113281 -0.269531 17.058594 -0.324219 C 17.113281 -0.867188 17.492188 -1.949219 18.089844 -3.195312 L 18.089844 -3.304688 C 18.144531 -3.464844 18.144531 -3.628906 18.144531 -3.792969 C 18.144531 -3.898438 18.089844 -3.953125 18.035156 -4.117188 C 18.089844 -4.65625 18.523438 -5.6875 18.957031 -6.554688 L 18.902344 -6.554688 C 19.117188 -6.984375 19.335938 -7.417969 19.441406 -7.746094 L 19.386719 -8.71875 L 19.550781 -9.371094 C 19.875 -10.667969 20.199219 -12.023438 20.417969 -13.269531 C 20.363281 -14.082031 20.148438 -14.351562 19.171875 -15.21875 C 19.226562 -15.652344 19.226562 -16.085938 19.171875 -16.410156 C 19.007812 -18.46875 17.222656 -19.714844 16.246094 -19.714844 C 15.8125 -19.714844 15.542969 -18.847656 15.164062 -17.710938 C 14.894531 -16.84375 14.515625 -15.707031 14.1875 -14.949219 L 14.1875 -14.730469 C 14.1875 -14.621094 14.1875 -14.515625 14.242188 -14.460938 C 14.296875 -13.59375 13.375 -11.96875 12.726562 -10.886719 L 12.511719 -10.453125 C 10.34375 -6.390625 6.878906 -1.570312 5.632812 -0.757812 C 5.46875 -0.8125 5.46875 -0.921875 5.414062 -1.191406 C 5.363281 -1.789062 6.011719 -3.628906 6.660156 -5.46875 C 7.039062 -6.5 7.417969 -7.636719 7.746094 -8.664062 C 7.851562 -10.128906 8.230469 -11.320312 8.609375 -12.511719 L 8.828125 -13.269531 C 8.71875 -13.972656 8.503906 -15.652344 6.769531 -16.519531 C 6.011719 -16.898438 5.792969 -17.382812 5.523438 -17.871094 L 5.578125 -17.871094 C 5.199219 -18.574219 4.929688 -19.171875 3.359375 -19.171875 C 3.03125 -19.171875 2.871094 -19.007812 2.925781 -18.792969 C 2.925781 -18.683594 2.925781 -18.574219 2.980469 -18.523438 L 2.980469 -18.46875 C 2.980469 -18.25 2.871094 -17.816406 2.761719 -17.382812 Z M 2.761719 -17.382812 "/></g></g></g><g fill="#915c37" fill-opacity="1"><g transform="translate(214.549082, 210.125187)"><g><path d="M 17.003906 -14.730469 L 16.953125 -14.730469 C 18.144531 -16.953125 18.25 -17.601562 18.25 -17.925781 C 18.144531 -18.195312 17.925781 -18.304688 17.710938 -18.304688 C 17.546875 -18.304688 17.277344 -18.195312 17.113281 -18.035156 L 17.003906 -18.035156 C 16.734375 -18.035156 16.246094 -16.953125 15.761719 -15.976562 C 15.488281 -15.328125 15.164062 -14.730469 15 -14.460938 L 15 -14.515625 L 14.839844 -13.863281 C 14.785156 -13.703125 14.730469 -13.484375 14.621094 -13.269531 L 14.675781 -13.269531 C 12.726562 -9.421875 9.207031 -4.710938 8.285156 -4.710938 C 8.125 -4.710938 7.960938 -4.929688 7.90625 -5.089844 C 7.851562 -5.6875 8.070312 -6.769531 8.503906 -8.015625 L 8.230469 -9.800781 C 8.558594 -10.992188 8.988281 -12.292969 9.476562 -13.703125 C 9.421875 -13.972656 9.371094 -14.296875 9.371094 -14.570312 C 9.371094 -14.839844 9.371094 -15.109375 9.316406 -15.273438 L 9.207031 -15.867188 L 9.207031 -15.976562 C 9.152344 -16.140625 9.152344 -16.246094 9.152344 -16.410156 L 10.722656 -21.175781 C 10.722656 -21.175781 10.722656 -21.5 10.667969 -21.769531 C 10.613281 -22.476562 10.5625 -23.882812 10.398438 -24.75 L 11.859375 -29.734375 C 11.859375 -30.058594 11.804688 -30.382812 11.753906 -30.707031 L 11.753906 -30.871094 C 12.566406 -33.308594 13.269531 -35.527344 13.050781 -36.71875 C 12.726562 -38.507812 11.480469 -39.914062 10.507812 -40.457031 C 9.476562 -42.296875 7.527344 -43.21875 6.714844 -43.21875 C 5.414062 -43.21875 4.875 -38.34375 4.496094 -34.660156 C 4.441406 -34.605469 4.441406 -34.445312 4.441406 -34.335938 L 4.601562 -33.957031 C 4.386719 -33.144531 4.277344 -32.441406 4.277344 -32.386719 C 4.222656 -31.140625 3.898438 -30.058594 3.628906 -28.972656 C 3.304688 -27.835938 2.980469 -26.210938 2.980469 -24.859375 C 2.492188 -22.53125 2.003906 -17.816406 2.058594 -17.003906 C 1.515625 -14.621094 1.246094 -12.347656 1.246094 -10.398438 C 1.246094 -7.257812 2.492188 -2.382812 6.226562 -2.058594 C 7.09375 -2.058594 7.90625 -2.492188 9.042969 -3.195312 C 9.097656 -3.195312 9.207031 -3.140625 9.261719 -3.140625 C 10.289062 -3.140625 11.859375 -5.523438 12.945312 -7.203125 C 13.105469 -7.367188 13.324219 -7.691406 13.269531 -7.636719 C 14.785156 -9.910156 16.140625 -12.457031 16.789062 -14.1875 Z M 17.003906 -14.730469 "/></g></g></g><g fill="#915c37" fill-opacity="1"><g transform="translate(226.733365, 210.125187)"><g><path d="M 14.839844 -34.605469 C 14.570312 -34.824219 14.40625 -35.527344 14.242188 -36.125 L 13.917969 -37.152344 L 13.917969 -38.074219 C 13.59375 -40.835938 10.886719 -42.40625 9.910156 -42.40625 C 9.042969 -42.40625 8.828125 -40.511719 8.609375 -38.289062 C 8.503906 -37.152344 8.394531 -35.796875 8.179688 -34.550781 C 8.125 -34.226562 7.960938 -33.792969 7.796875 -33.414062 C 7.636719 -33.089844 7.527344 -32.765625 7.417969 -32.277344 L 7.417969 -32.332031 L 6.121094 -28.8125 C 5.523438 -28.867188 4.820312 -28.921875 4.222656 -28.921875 L 2.328125 -29.027344 C -0.8125 -29.300781 -3.195312 -29.949219 -4.820312 -30.597656 L -5.578125 -30.492188 C -5.742188 -30.652344 -5.847656 -30.707031 -5.957031 -30.707031 C -6.011719 -30.707031 -6.121094 -30.652344 -6.175781 -30.597656 C -6.445312 -30.597656 -6.554688 -30.382812 -6.554688 -30.164062 C -6.175781 -28.433594 -2.273438 -27.023438 2.382812 -26.539062 L 5.363281 -26.210938 C 5.199219 -25.398438 5.089844 -24.640625 4.984375 -23.882812 C 4.710938 -22.421875 4.496094 -20.851562 4.0625 -19.441406 L 4.0625 -19.496094 C 3.84375 -18.957031 3.683594 -18.195312 3.519531 -17.492188 L 3.304688 -16.570312 C 3.304688 -16.410156 3.359375 -16.246094 3.359375 -16.085938 C 2.003906 -12.402344 1.191406 -8.664062 1.300781 -6.714844 C 1.460938 -5.523438 3.140625 -3.953125 4.222656 -2.980469 C 4.710938 -1.894531 5.523438 -1.082031 7.09375 -1.082031 C 8.503906 -1.082031 10.613281 -3.03125 12.457031 -5.089844 L 14.40625 -7.527344 C 17.65625 -11.589844 19.660156 -15.273438 19.875 -16.734375 C 19.875 -16.84375 19.875 -17.003906 19.765625 -17.167969 L 19.820312 -17.222656 L 19.820312 -17.167969 C 19.875 -17.332031 19.929688 -17.492188 19.875 -17.65625 C 19.875 -17.925781 19.605469 -18.144531 19.386719 -18.144531 C 18.847656 -18.144531 17.003906 -14.621094 16.355469 -13.324219 L 16.355469 -13.375 L 16.085938 -12.835938 C 15.597656 -11.753906 14.621094 -10.5625 13.757812 -9.476562 C 13.429688 -9.097656 13.050781 -8.71875 12.78125 -8.339844 C 11.210938 -6.445312 8.9375 -4.117188 7.960938 -3.683594 C 7.746094 -3.898438 7.691406 -4.171875 7.691406 -4.550781 C 7.472656 -6.445312 8.558594 -9.640625 9.800781 -13.214844 L 11.265625 -17.601562 L 11.15625 -18.847656 C 11.589844 -20.148438 11.914062 -21.824219 12.132812 -23.234375 C 12.238281 -24.152344 12.402344 -25.074219 12.566406 -25.996094 L 17.222656 -25.777344 L 17.492188 -25.777344 C 17.65625 -25.726562 17.761719 -25.726562 17.980469 -25.726562 C 21.988281 -25.292969 25.671875 -23.992188 25.941406 -22.746094 L 26.699219 -22.746094 C 27.023438 -22.746094 27.402344 -22.855469 27.296875 -23.394531 C 27.078125 -24.964844 24.480469 -27.402344 18.523438 -28 L 17.925781 -28 C 17.761719 -27.945312 17.601562 -27.945312 17.492188 -27.945312 L 13.160156 -28.160156 C 13.863281 -30.542969 14.40625 -32.546875 14.839844 -34.445312 Z M 14.839844 -34.605469 "/></g></g></g><g fill="#915c37" fill-opacity="1"><g transform="translate(240.542217, 210.125187)"><g><path d="M 2.761719 -17.382812 C 2.597656 -16.898438 2.492188 -16.355469 2.4375 -16.03125 L 2.273438 -14.460938 C 2.058594 -12.996094 1.625 -12.78125 1.300781 -11.320312 C 1.300781 -10.886719 1.40625 -10.398438 1.40625 -9.964844 C 1.300781 -9.53125 1.082031 -9.097656 0.921875 -8.71875 L 0.378906 -7.417969 L 0.8125 -4.496094 C 0.867188 -4.0625 0.976562 -3.683594 1.246094 -3.25 C 1.082031 -2.597656 1.082031 -2.058594 1.082031 -1.625 C 1.300781 0.703125 3.03125 1.625 4.332031 1.625 C 6.011719 1.625 8.015625 -0.488281 9.53125 -2.492188 C 10.074219 -2.980469 10.34375 -3.683594 10.507812 -4.222656 C 10.667969 -4.710938 10.832031 -5.199219 11.15625 -5.578125 L 11.589844 -6.335938 C 12.023438 -7.039062 12.617188 -8.125 12.726562 -7.796875 C 12.78125 -7.796875 12.617188 -6.714844 12.457031 -5.742188 C 12.292969 -4.875 12.078125 -4.0625 12.292969 -3.953125 C 12.183594 -3.519531 12.183594 -3.03125 12.238281 -2.546875 C 12.402344 -0.648438 13.703125 1.570312 15.652344 1.839844 L 15.761719 1.839844 C 15.976562 1.894531 16.140625 1.949219 16.410156 1.949219 C 17.382812 1.949219 20.199219 0.648438 21.554688 -1.625 C 21.609375 -1.734375 21.769531 -1.894531 21.878906 -2.003906 C 21.988281 -2.167969 22.152344 -2.273438 22.203125 -2.546875 L 24.371094 -5.578125 C 24.75 -6.121094 24.964844 -6.714844 25.128906 -7.367188 C 25.777344 -8.230469 26.375 -9.207031 26.644531 -9.910156 C 26.539062 -10.453125 27.132812 -11.535156 27.457031 -12.132812 C 27.621094 -12.347656 27.78125 -12.566406 27.78125 -12.617188 L 27.730469 -12.617188 C 27.890625 -12.945312 27.945312 -13.160156 27.890625 -13.324219 C 27.835938 -13.703125 27.621094 -13.917969 27.296875 -13.917969 C 26.265625 -13.917969 25.398438 -11.425781 25.019531 -10.234375 L 24.859375 -9.800781 L 24.914062 -9.800781 C 24.207031 -8.609375 23.558594 -7.527344 22.800781 -6.335938 L 22.3125 -5.414062 C 20.527344 -2.925781 18.195312 -0.109375 17.332031 0 C 17.222656 -0.0546875 17.113281 -0.269531 17.058594 -0.324219 C 17.113281 -0.867188 17.492188 -1.949219 18.089844 -3.195312 L 18.089844 -3.304688 C 18.144531 -3.464844 18.144531 -3.628906 18.144531 -3.792969 C 18.144531 -3.898438 18.089844 -3.953125 18.035156 -4.117188 C 18.089844 -4.65625 18.523438 -5.6875 18.957031 -6.554688 L 18.902344 -6.554688 C 19.117188 -6.984375 19.335938 -7.417969 19.441406 -7.746094 L 19.386719 -8.71875 L 19.550781 -9.371094 C 19.875 -10.667969 20.199219 -12.023438 20.417969 -13.269531 C 20.363281 -14.082031 20.148438 -14.351562 19.171875 -15.21875 C 19.226562 -15.652344 19.226562 -16.085938 19.171875 -16.410156 C 19.007812 -18.46875 17.222656 -19.714844 16.246094 -19.714844 C 15.8125 -19.714844 15.542969 -18.847656 15.164062 -17.710938 C 14.894531 -16.84375 14.515625 -15.707031 14.1875 -14.949219 L 14.1875 -14.730469 C 14.1875 -14.621094 14.1875 -14.515625 14.242188 -14.460938 C 14.296875 -13.59375 13.375 -11.96875 12.726562 -10.886719 L 12.511719 -10.453125 C 10.34375 -6.390625 6.878906 -1.570312 5.632812 -0.757812 C 5.46875 -0.8125 5.46875 -0.921875 5.414062 -1.191406 C 5.363281 -1.789062 6.011719 -3.628906 6.660156 -5.46875 C 7.039062 -6.5 7.417969 -7.636719 7.746094 -8.664062 C 7.851562 -10.128906 8.230469 -11.320312 8.609375 -12.511719 L 8.828125 -13.269531 C 8.71875 -13.972656 8.503906 -15.652344 6.769531 -16.519531 C 6.011719 -16.898438 5.792969 -17.382812 5.523438 -17.871094 L 5.578125 -17.871094 C 5.199219 -18.574219 4.929688 -19.171875 3.359375 -19.171875 C 3.03125 -19.171875 2.871094 -19.007812 2.925781 -18.792969 C 2.925781 -18.683594 2.925781 -18.574219 2.980469 -18.523438 L 2.980469 -18.46875 C 2.980469 -18.25 2.871094 -17.816406 2.761719 -17.382812 Z M 2.761719 -17.382812 "/></g></g></g><g fill="#915c37" fill-opacity="1"><g transform="translate(264.856631, 210.125187)"><g><path d="M 0.921875 -10.832031 C 1.027344 -9.800781 1.191406 -9.476562 1.460938 -9.476562 C 1.789062 -9.476562 4.0625 -12.890625 4.386719 -13.703125 L 5.199219 -15.378906 L 5.199219 -15.328125 C 5.578125 -15.761719 5.414062 -15.761719 5.578125 -16.300781 C 5.847656 -17.003906 6.175781 -17.492188 6.445312 -17.871094 C 6.5 -17.925781 6.554688 -17.980469 6.660156 -17.980469 C 6.984375 -17.980469 7.472656 -17.710938 7.796875 -17.601562 C 8.179688 -17.4375 8.558594 -17.332031 8.882812 -17.332031 C 8.9375 -17.332031 9.042969 -17.382812 9.152344 -17.4375 C 9.207031 -17.382812 9.207031 -17.382812 9.316406 -17.382812 C 9.421875 -17.382812 9.695312 -17.546875 9.910156 -17.65625 C 9.964844 -17.710938 10.019531 -17.710938 10.074219 -17.710938 L 10.074219 -17.65625 C 10.074219 -17.546875 10.074219 -17.4375 10.019531 -17.332031 L 9.964844 -16.898438 C 9.964844 -16.898438 10.019531 -16.84375 10.019531 -16.898438 C 10.128906 -15.921875 9.53125 -14.839844 8.988281 -13.703125 C 8.285156 -12.292969 7.417969 -10.398438 7.417969 -8.609375 C 7.367188 -7.746094 7.148438 -6.769531 6.933594 -5.902344 C 6.714844 -4.929688 6.554688 -4.0625 6.605469 -3.410156 C 7.039062 1.40625 9.53125 4.984375 14.027344 5.363281 C 16.03125 5.363281 18.195312 4.765625 20.6875 1.460938 C 21.230469 0.324219 21.769531 -0.8125 22.476562 -1.894531 L 23.015625 -2.707031 C 23.394531 -3.195312 24.316406 -5.089844 24.914062 -6.28125 L 25.347656 -7.148438 L 25.671875 -8.070312 C 27.023438 -11.375 26.863281 -11.96875 26.539062 -12.183594 L 26.589844 -12.183594 L 26.484375 -12.292969 C 26.429688 -12.457031 26.429688 -12.566406 26.429688 -12.671875 C 26.429688 -12.945312 26.429688 -13.105469 26.375 -13.105469 C 25.886719 -13.105469 25.074219 -10.398438 24.964844 -10.019531 C 24.75 -9.316406 24.480469 -8.558594 24.101562 -7.636719 C 22.257812 -2.761719 17.871094 2.980469 15.8125 2.980469 C 15.707031 2.980469 15.542969 2.980469 15.433594 2.871094 C 15.164062 3.03125 14.949219 3.140625 14.785156 3.140625 C 13.808594 3.140625 13.539062 0.976562 13.324219 -0.648438 L 13.269531 -1.136719 C 13.375 -1.246094 13.324219 -1.300781 13.324219 -1.460938 L 13.214844 -2.546875 L 13.214844 -3.359375 C 13.214844 -4.496094 13.375 -5.6875 13.703125 -6.878906 L 14.839844 -9.476562 C 15.597656 -11.753906 16.519531 -13.539062 17.277344 -14.894531 C 18.035156 -16.300781 18.574219 -17.332031 18.523438 -17.980469 C 18.359375 -19.875 15.164062 -22.152344 14.40625 -22.152344 C 14.082031 -22.097656 12.890625 -21.609375 11.265625 -20.632812 L 9.097656 -19.335938 L 9.152344 -19.335938 C 8.882812 -19.226562 8.664062 -19.171875 8.449219 -19.171875 C 8.449219 -19.171875 8.449219 -19.226562 8.394531 -19.28125 L 8.394531 -19.226562 L 8.179688 -19.660156 L 8.070312 -19.660156 C 7.691406 -19.660156 7.527344 -20.039062 7.417969 -20.039062 C 7.367188 -20.039062 7.3125 -19.984375 7.3125 -19.984375 C 7.417969 -20.363281 7.582031 -20.527344 7.960938 -21.339844 C 9.097656 -23.722656 10.886719 -27.566406 10.722656 -30.21875 C 10.5625 -31.84375 9.261719 -32.820312 7.746094 -32.820312 C 4.117188 -32.820312 1.949219 -27.242188 2.113281 -23.503906 C 2.113281 -23.234375 2.21875 -23.015625 2.328125 -22.855469 L 2.382812 -22.582031 C 2.382812 -22.257812 2.980469 -21.445312 3.574219 -20.632812 C 4.171875 -19.875 4.765625 -19.0625 4.765625 -18.847656 C 4.820312 -18.089844 3.792969 -16.03125 3.03125 -14.621094 C 2.597656 -13.808594 0.921875 -10.941406 0.921875 -10.832031 Z M -21.121094 5.308594 C -25.019531 5.308594 -28.8125 5.578125 -31.789062 5.902344 C -32.546875 6.066406 -33.308594 6.175781 -34.066406 6.175781 C -34.550781 6.226562 -35.796875 6.445312 -39.644531 7.691406 L -41.753906 8.609375 L -38.992188 8.664062 C -38.9375 8.664062 -38.886719 8.71875 -38.832031 8.71875 C -38.722656 8.71875 -38.558594 8.664062 -38.453125 8.609375 C -37.855469 8.503906 -36.773438 8.503906 -35.527344 8.449219 C -34.011719 8.449219 -32.277344 8.394531 -31.410156 8.179688 C -30.273438 7.90625 -28.648438 7.796875 -27.023438 7.691406 C -25.886719 7.636719 -24.75 7.527344 -23.828125 7.367188 C -23.773438 7.3125 -23.773438 7.3125 -23.722656 7.3125 C -23.613281 7.3125 -23.558594 7.417969 -23.449219 7.417969 C -23.394531 7.472656 -23.394531 7.417969 -23.34375 7.417969 L -22.746094 7.417969 C -17.058594 7.691406 -12.671875 8.015625 -7.636719 9.421875 C -6.226562 9.910156 -4.710938 10.289062 -3.140625 10.722656 C 1.355469 11.96875 5.957031 13.324219 7.039062 15.109375 C 7.851562 16.519531 8.285156 17.4375 8.828125 17.4375 C 9.476562 17.4375 10.5625 16.300781 12.890625 13.648438 L 13.648438 12.78125 C 12.566406 10.941406 10.398438 8.230469 5.035156 7.746094 C 0.921875 6.121094 -3.03125 4.710938 -9.261719 4.710938 C -11.644531 4.710938 -14.296875 4.929688 -17.492188 5.363281 C -18.683594 5.308594 -19.929688 5.308594 -21.121094 5.308594 Z M 8.125 -28.433594 C 8.285156 -28.378906 8.394531 -28.160156 8.394531 -27.945312 C 8.503906 -26.699219 7.417969 -23.828125 6.226562 -21.230469 L 6.175781 -21.445312 C 5.957031 -21.933594 5.632812 -22.746094 5.523438 -23.558594 C 5.523438 -25.128906 7.148438 -28 8.125 -28.433594 Z M 8.125 -28.433594 "/></g></g></g><g fill="#915c37" fill-opacity="1"><g transform="translate(288.575368, 210.125187)"><g><path d="M 4.765625 -3.738281 L 4.710938 -3.792969 C 4.710938 -3.953125 4.875 -4.496094 4.984375 -4.875 L 4.984375 -4.820312 L 5.035156 -5.144531 C 5.414062 -6.121094 5.6875 -6.714844 6.066406 -7.527344 L 6.554688 -8.558594 C 6.878906 -9.421875 7.203125 -10.179688 7.746094 -11.046875 C 8.015625 -12.238281 9.207031 -13.269531 10.179688 -14.136719 L 11.15625 -15.054688 C 12.347656 -16.355469 14.894531 -16.789062 16.085938 -16.789062 C 16.191406 -16.789062 16.355469 -16.789062 16.464844 -16.734375 C 16.953125 -16.84375 17.167969 -17.222656 17.113281 -17.761719 C 17.003906 -18.792969 14.242188 -20.742188 12.78125 -21.121094 L 12.511719 -21.121094 C 11.320312 -21.121094 8.828125 -20.363281 7.417969 -19.386719 L 7.472656 -19.386719 L 6.660156 -19.007812 C 4.765625 -17.710938 3.25 -15.8125 1.894531 -14.027344 L 1.40625 -12.945312 C -0.269531 -10.179688 -1.570312 -6.769531 -1.40625 -4.332031 C -1.027344 -0.378906 2.492188 1.082031 5.144531 1.082031 C 5.632812 1.082031 6.28125 0.597656 6.984375 0.0546875 L 7.203125 -0.109375 C 7.851562 -0.164062 8.558594 -1.136719 9.152344 -2.058594 C 9.316406 -2.328125 9.421875 -2.597656 9.695312 -2.871094 L 10.722656 -4.929688 L 10.722656 -4.875 L 11.480469 -6.011719 C 11.480469 -5.902344 11.480469 -6.066406 11.425781 -5.742188 C 11.425781 -5.6875 11.375 -5.632812 11.375 -5.578125 L 11.425781 -5.144531 C 11.480469 -4.765625 11.480469 -4.496094 11.480469 -4.222656 C 11.480469 -3.953125 11.480469 -3.574219 11.535156 -3.304688 C 11.535156 -2.816406 11.644531 -2.21875 11.804688 -1.789062 C 12.183594 -0.433594 13.972656 1.734375 15.652344 1.734375 C 16.085938 1.734375 16.464844 1.570312 16.898438 1.40625 L 17.332031 1.246094 C 18.359375 1.191406 20.632812 -0.976562 21.066406 -1.949219 C 21.5 -2.492188 22.367188 -3.953125 23.234375 -5.363281 C 24.046875 -6.660156 24.804688 -7.90625 25.183594 -8.394531 C 26.105469 -10.019531 26.808594 -10.992188 27.242188 -11.589844 C 27.566406 -12.078125 27.730469 -12.347656 27.730469 -12.511719 C 27.78125 -12.78125 27.78125 -12.945312 27.78125 -13.105469 C 27.730469 -13.484375 27.511719 -13.648438 27.242188 -13.648438 C 27.023438 -13.648438 26.753906 -13.539062 26.589844 -13.375 L 25.292969 -11.320312 C 25.019531 -10.777344 24.480469 -10.074219 24.261719 -9.585938 C 23.882812 -8.71875 23.394531 -8.125 23.125 -7.691406 L 21.5 -4.820312 C 20.472656 -3.140625 18.46875 -0.597656 17.167969 -0.597656 C 16.898438 -0.597656 16.355469 -0.648438 16.355469 -0.8125 C 16.300781 -1.027344 16.519531 -1.515625 16.84375 -2.167969 L 17.492188 -4.117188 C 17.601562 -4.601562 17.761719 -5.035156 17.925781 -5.46875 C 18.195312 -6.121094 18.414062 -6.769531 18.46875 -7.636719 C 18.46875 -8.828125 18.683594 -9.371094 18.847656 -9.695312 C 18.902344 -9.855469 18.957031 -10.074219 18.957031 -10.234375 C 18.957031 -10.34375 19.117188 -10.886719 19.335938 -11.425781 C 19.605469 -12.132812 19.929688 -12.945312 19.875 -13.105469 C 19.820312 -13.539062 19.550781 -13.703125 19.28125 -13.917969 L 19.335938 -13.917969 L 19.226562 -13.972656 L 19.226562 -14.027344 C 19.226562 -14.082031 19.226562 -14.136719 19.171875 -14.242188 C 18.359375 -15 17.546875 -15 16.519531 -15 C 15.921875 -15 13.972656 -14.894531 13.972656 -14.1875 C 13.808594 -13.757812 13.648438 -13.429688 13.539062 -13.324219 C 13.375 -13.105469 13.160156 -12.835938 12.945312 -12.183594 C 12.78125 -11.589844 12.617188 -10.992188 12.402344 -10.5625 C 11.859375 -9.75 11.320312 -8.609375 10.722656 -7.367188 C 9.910156 -5.742188 8.988281 -3.84375 8.125 -2.652344 C 7.472656 -1.949219 6.878906 -1.300781 5.847656 -1.300781 L 5.6875 -1.300781 C 5.363281 -1.300781 5.144531 -1.570312 5.089844 -2.113281 C 5.089844 -2.273438 5.035156 -2.382812 4.984375 -2.492188 C 4.929688 -2.707031 4.875 -2.980469 4.875 -3.195312 Z M 4.765625 -3.738281 "/></g></g></g></svg>