<svg xmlns="http://www.w3.org/2000/svg" xmlns:xlink="http://www.w3.org/1999/xlink" zoomAndPan="magnify" preserveAspectRatio="xMidYMid meet" version="1.0" viewBox="696 380 48 50"><path fill="#000000" d="M 716.074219 410.21875 C 715.199219 411.105469 715.199219 412.4375 716.074219 413.324219 C 716.507812 413.769531 717.164062 413.992188 717.601562 413.992188 C 718.035156 413.992188 718.691406 413.769531 719.128906 413.324219 L 726.109375 406.222656 C 726.328125 406 726.546875 405.777344 726.546875 405.554688 C 726.761719 405.332031 726.761719 404.890625 726.761719 404.667969 C 726.761719 404.445312 726.761719 404 726.546875 403.777344 C 726.546875 403.777344 726.328125 403.558594 726.328125 403.558594 C 726.328125 403.335938 726.109375 403.335938 726.109375 403.113281 L 719.128906 396.007812 C 718.253906 395.121094 716.945312 395.121094 716.074219 396.007812 C 715.199219 396.898438 715.199219 398.230469 716.074219 399.117188 L 719.34375 402.445312 L 698.183594 402.445312 C 696.871094 402.445312 696 403.335938 696 404.667969 C 696 406 696.871094 406.886719 698.183594 406.886719 L 719.34375 406.886719 Z M 716.074219 410.21875 " fill-opacity="1" fill-rule="nonzero"/><path fill="#000000" d="M 741.816406 380.023438 L 708 380.023438 C 706.691406 380.023438 705.816406 380.914062 705.816406 382.246094 L 705.816406 393.34375 C 705.816406 394.675781 706.691406 395.566406 708 395.566406 C 709.308594 395.566406 710.183594 394.675781 710.183594 393.34375 L 710.183594 384.464844 L 739.636719 384.464844 L 739.636719 425.535156 L 710.183594 425.535156 L 710.183594 416.65625 C 710.183594 415.324219 709.308594 414.433594 708 414.433594 C 706.691406 414.433594 705.816406 415.324219 705.816406 416.65625 L 705.816406 427.753906 C 705.816406 429.085938 706.691406 429.976562 708 429.976562 L 741.816406 429.976562 C 743.128906 429.976562 744 429.085938 744 427.753906 L 744 382.246094 C 744 380.914062 742.910156 380.023438 741.816406 380.023438 Z M 741.816406 380.023438 " fill-opacity="1" fill-rule="nonzero"/></svg>