<svg xmlns="http://www.w3.org/2000/svg" xmlns:xlink="http://www.w3.org/1999/xlink" width="1920" zoomAndPan="magnify" viewBox="0 0 1440 809.999993" height="1080" preserveAspectRatio="xMidYMid meet" version="1.0"><defs><g/><clipPath id="07e703d64d"><path d="M 558 216.714844 L 882 216.714844 L 882 540.714844 L 558 540.714844 Z M 558 216.714844 " clip-rule="nonzero"/></clipPath></defs><g clip-path="url(#07e703d64d)"><path fill="#915c37" d="M 720 249.117188 C 648.425781 249.117188 590.398438 307.140625 590.398438 378.714844 C 590.398438 399.261719 595.167969 418.644531 603.644531 435.867188 C 605.976562 440.605469 606.820312 446.140625 605.695312 451.640625 L 594.914062 504.160156 L 649.554688 493.9375 C 654.796875 492.957031 660.042969 493.753906 664.578125 495.90625 C 681.359375 503.859375 700.136719 508.316406 720 508.316406 C 791.578125 508.316406 849.601562 450.292969 849.601562 378.714844 C 849.601562 307.140625 791.578125 249.117188 720 249.117188 Z M 558 378.714844 C 558 289.246094 630.53125 216.714844 720 216.714844 C 809.46875 216.714844 882 289.246094 882 378.714844 C 882 468.1875 809.46875 540.714844 720 540.714844 C 696.136719 540.714844 673.441406 535.546875 653.003906 526.253906 L 589.027344 538.222656 C 572.058594 541.398438 557.285156 526.363281 560.753906 509.453125 L 573.414062 447.765625 C 563.523438 426.800781 558 403.378906 558 378.714844 Z M 558 378.714844 " fill-opacity="1" fill-rule="evenodd"/></g><path fill="#915c37" d="M 736.199219 346.316406 L 736.199219 459.714844 L 703.800781 459.714844 L 703.800781 362.515625 L 687.601562 362.515625 L 687.601562 330.117188 L 720 330.117188 C 728.945312 330.117188 736.199219 337.371094 736.199219 346.316406 Z M 736.199219 346.316406 " fill-opacity="1" fill-rule="evenodd"/><path fill="#915c37" d="M 687.601562 443.515625 L 752.398438 443.515625 L 752.398438 475.917969 L 687.601562 475.917969 Z M 687.601562 443.515625 " fill-opacity="1" fill-rule="evenodd"/><path fill="#915c37" d="M 703.800781 281.515625 L 736.199219 281.515625 L 736.199219 305.816406 L 703.800781 305.816406 Z M 703.800781 281.515625 " fill-opacity="1" fill-rule="evenodd"/><g fill="#c6ac99" fill-opacity="1"><g transform="translate(635.203099, 600.968654)"><g><path d="M 14.5625 -33.59375 C 16.34375 -33.59375 18.085938 -33.332031 19.796875 -32.8125 C 21.503906 -32.300781 22.769531 -31.789062 23.59375 -31.28125 L 24.796875 -30.484375 L 21.765625 -24.484375 C 21.523438 -24.640625 21.191406 -24.84375 20.765625 -25.09375 C 20.335938 -25.351562 19.535156 -25.695312 18.359375 -26.125 C 17.179688 -26.550781 16.085938 -26.765625 15.078125 -26.765625 C 13.828125 -26.765625 12.859375 -26.492188 12.171875 -25.953125 C 11.492188 -25.421875 11.15625 -24.703125 11.15625 -23.796875 C 11.15625 -23.347656 11.316406 -22.925781 11.640625 -22.53125 C 11.960938 -22.144531 12.507812 -21.734375 13.28125 -21.296875 C 14.050781 -20.859375 14.726562 -20.503906 15.3125 -20.234375 C 15.90625 -19.972656 16.816406 -19.578125 18.046875 -19.046875 C 20.171875 -18.140625 21.988281 -16.90625 23.5 -15.34375 C 25.007812 -13.78125 25.765625 -12.015625 25.765625 -10.046875 C 25.765625 -8.148438 25.421875 -6.492188 24.734375 -5.078125 C 24.054688 -3.660156 23.125 -2.550781 21.9375 -1.75 C 20.75 -0.957031 19.4375 -0.367188 18 0.015625 C 16.5625 0.398438 15 0.59375 13.3125 0.59375 C 11.875 0.59375 10.460938 0.445312 9.078125 0.15625 C 7.691406 -0.132812 6.53125 -0.5 5.59375 -0.9375 C 4.664062 -1.375 3.828125 -1.804688 3.078125 -2.234375 C 2.328125 -2.660156 1.78125 -3.019531 1.4375 -3.3125 L 0.921875 -3.765625 L 4.6875 -10.078125 C 5 -9.816406 5.4375 -9.476562 6 -9.0625 C 6.5625 -8.644531 7.554688 -8.085938 8.984375 -7.390625 C 10.410156 -6.703125 11.671875 -6.359375 12.765625 -6.359375 C 15.929688 -6.359375 17.515625 -7.4375 17.515625 -9.59375 C 17.515625 -10.050781 17.398438 -10.472656 17.171875 -10.859375 C 16.953125 -11.242188 16.554688 -11.628906 15.984375 -12.015625 C 15.410156 -12.398438 14.898438 -12.707031 14.453125 -12.9375 C 14.015625 -13.164062 13.296875 -13.515625 12.296875 -13.984375 C 11.296875 -14.453125 10.554688 -14.804688 10.078125 -15.046875 C 8.078125 -16.023438 6.53125 -17.253906 5.4375 -18.734375 C 4.34375 -20.210938 3.796875 -21.804688 3.796875 -23.515625 C 3.796875 -26.472656 4.890625 -28.890625 7.078125 -30.765625 C 9.265625 -32.648438 11.757812 -33.59375 14.5625 -33.59375 Z M 14.5625 -33.59375 "/></g></g></g><g fill="#c6ac99" fill-opacity="1"><g transform="translate(662.080429, 600.968654)"><g><path d="M 0.921875 -16.515625 C 0.921875 -21.296875 2.546875 -25.335938 5.796875 -28.640625 C 9.054688 -31.941406 12.976562 -33.59375 17.5625 -33.59375 C 22.175781 -33.59375 26.09375 -31.945312 29.3125 -28.65625 C 32.539062 -25.363281 34.15625 -21.316406 34.15625 -16.515625 C 34.15625 -11.691406 32.566406 -7.632812 29.390625 -4.34375 C 26.222656 -1.050781 22.28125 0.59375 17.5625 0.59375 C 12.726562 0.59375 8.742188 -1.035156 5.609375 -4.296875 C 2.484375 -7.566406 0.921875 -11.640625 0.921875 -16.515625 Z M 9.046875 -16.515625 C 9.046875 -14.785156 9.3125 -13.207031 9.84375 -11.78125 C 10.375 -10.351562 11.304688 -9.144531 12.640625 -8.15625 C 13.972656 -7.175781 15.613281 -6.6875 17.5625 -6.6875 C 20.363281 -6.6875 22.476562 -7.644531 23.90625 -9.5625 C 25.332031 -11.476562 26.046875 -13.796875 26.046875 -16.515625 C 26.046875 -19.210938 25.316406 -21.523438 23.859375 -23.453125 C 22.410156 -25.390625 20.3125 -26.359375 17.5625 -26.359375 C 14.84375 -26.359375 12.742188 -25.390625 11.265625 -23.453125 C 9.785156 -21.523438 9.046875 -19.210938 9.046875 -16.515625 Z M 9.046875 -16.515625 "/></g></g></g><g fill="#c6ac99" fill-opacity="1"><g transform="translate(697.156946, 600.968654)"><g><path d="M 2.40625 -33 L 12.640625 -33 C 15.734375 -33 18.195312 -32.335938 20.03125 -31.015625 C 21.875 -29.703125 22.796875 -27.5625 22.796875 -24.59375 C 22.796875 -21.289062 21.425781 -18.929688 18.6875 -17.515625 C 23.375 -16.691406 25.71875 -13.921875 25.71875 -9.203125 C 25.71875 -6.429688 24.753906 -4.203125 22.828125 -2.515625 C 20.910156 -0.835938 18.273438 0 14.921875 0 L 2.40625 0 Z M 9.921875 -20.078125 L 10.515625 -20.078125 C 12.203125 -20.078125 13.457031 -20.367188 14.28125 -20.953125 C 15.101562 -21.546875 15.515625 -22.507812 15.515625 -23.84375 C 15.515625 -26.082031 13.847656 -27.203125 10.515625 -27.203125 L 9.921875 -27.203125 Z M 9.921875 -5.796875 L 12.28125 -5.796875 C 15.957031 -5.796875 17.796875 -7.023438 17.796875 -9.484375 C 17.796875 -10.953125 17.335938 -12.003906 16.421875 -12.640625 C 15.503906 -13.273438 14.125 -13.59375 12.28125 -13.59375 L 9.921875 -13.59375 Z M 9.921875 -5.796875 "/></g></g></g><g fill="#c6ac99" fill-opacity="1"><g transform="translate(723.794304, 600.968654)"><g><path d="M 2.40625 -33 L 14.203125 -33 C 17.367188 -33 19.953125 -32.148438 21.953125 -30.453125 C 23.953125 -28.765625 24.953125 -26.347656 24.953125 -23.203125 C 24.953125 -20.773438 24.34375 -18.738281 23.125 -17.09375 C 21.914062 -15.457031 20.273438 -14.304688 18.203125 -13.640625 L 29.5625 0 L 20 0 L 9.921875 -13.046875 L 9.921875 0 L 2.40625 0 Z M 9.921875 -18.359375 L 10.796875 -18.359375 C 11.492188 -18.359375 12.082031 -18.367188 12.5625 -18.390625 C 13.039062 -18.421875 13.585938 -18.515625 14.203125 -18.671875 C 14.816406 -18.835938 15.304688 -19.066406 15.671875 -19.359375 C 16.046875 -19.648438 16.367188 -20.078125 16.640625 -20.640625 C 16.910156 -21.203125 17.046875 -21.878906 17.046875 -22.671875 C 17.046875 -23.472656 16.910156 -24.15625 16.640625 -24.71875 C 16.367188 -25.28125 16.046875 -25.707031 15.671875 -26 C 15.304688 -26.289062 14.816406 -26.515625 14.203125 -26.671875 C 13.585938 -26.835938 13.039062 -26.929688 12.5625 -26.953125 C 12.082031 -26.984375 11.492188 -27 10.796875 -27 L 9.921875 -27 Z M 9.921875 -18.359375 "/></g></g></g><g fill="#c6ac99" fill-opacity="1"><g transform="translate(752.43146, 600.968654)"><g><path d="M 21.28125 -33 L 21.28125 -26.40625 L 9.921875 -26.40625 L 9.921875 -19.84375 L 20.796875 -19.84375 L 20.796875 -13.234375 L 9.921875 -13.234375 L 9.921875 -6.59375 L 21.28125 -6.59375 L 21.28125 0 L 2.40625 0 L 2.40625 -33 Z M 21.28125 -33 "/></g></g></g></svg>