<svg xmlns="http://www.w3.org/2000/svg" xmlns:xlink="http://www.w3.org/1999/xlink" zoomAndPan="magnify" preserveAspectRatio="xMidYMid meet" version="1.0" viewBox="592.5 258.75 255 285.88"><defs><g/><clipPath id="6974b57f4a"><path d="M 592.5 258.75 L 823.5 258.75 L 823.5 489 L 592.5 489 Z M 592.5 258.75 " clip-rule="nonzero"/></clipPath><clipPath id="faa11e1c22"><path d="M 616.5 282.75 L 847.5 282.75 L 847.5 513 L 616.5 513 Z M 616.5 282.75 " clip-rule="nonzero"/></clipPath></defs><g clip-path="url(#6974b57f4a)"><path fill="#915c37" d="M 708 281.773438 C 656.96875 281.773438 615.601562 323.007812 615.601562 373.875 C 615.601562 388.476562 619 402.25 625.042969 414.488281 C 626.707031 417.855469 627.308594 421.789062 626.503906 425.699219 L 618.820312 463.019531 L 657.773438 455.753906 C 661.511719 455.058594 665.253906 455.628906 668.484375 457.15625 C 680.453125 462.808594 693.839844 465.976562 708 465.976562 C 759.03125 465.976562 800.398438 424.742188 800.398438 373.875 C 800.398438 323.007812 759.03125 281.773438 708 281.773438 Z M 592.5 373.875 C 592.5 310.292969 644.210938 258.75 708 258.75 C 771.789062 258.75 823.5 310.292969 823.5 373.875 C 823.5 437.457031 771.789062 489 708 489 C 690.988281 489 674.804688 485.328125 660.234375 478.722656 L 614.621094 487.226562 C 602.523438 489.484375 591.988281 478.800781 594.464844 466.78125 L 603.488281 422.945312 C 596.4375 408.046875 592.5 391.402344 592.5 373.875 Z M 592.5 373.875 " fill-opacity="1" fill-rule="evenodd"/></g><path fill="#915c37" d="M 719.550781 350.851562 L 719.550781 431.4375 L 696.449219 431.4375 L 696.449219 362.363281 L 684.898438 362.363281 L 684.898438 339.335938 L 708 339.335938 C 714.378906 339.335938 719.550781 344.492188 719.550781 350.851562 Z M 719.550781 350.851562 " fill-opacity="1" fill-rule="evenodd"/><path fill="#915c37" d="M 684.898438 419.925781 L 731.101562 419.925781 L 731.101562 442.949219 L 684.898438 442.949219 Z M 684.898438 419.925781 " fill-opacity="1" fill-rule="evenodd"/><path fill="#915c37" d="M 696.449219 304.800781 L 719.550781 304.800781 L 719.550781 322.070312 L 696.449219 322.070312 Z M 696.449219 304.800781 " fill-opacity="1" fill-rule="evenodd"/><g clip-path="url(#faa11e1c22)"><path fill="#814a23" d="M 732 305.773438 C 680.96875 305.773438 639.601562 347.007812 639.601562 397.875 C 639.601562 412.476562 643 426.25 649.042969 438.488281 C 650.707031 441.855469 651.308594 445.789062 650.503906 449.699219 L 642.820312 487.019531 L 681.773438 479.753906 C 685.511719 479.058594 689.253906 479.628906 692.484375 481.15625 C 704.453125 486.808594 717.839844 489.976562 732 489.976562 C 783.03125 489.976562 824.398438 448.742188 824.398438 397.875 C 824.398438 347.007812 783.03125 305.773438 732 305.773438 Z M 616.5 397.875 C 616.5 334.292969 668.210938 282.75 732 282.75 C 795.789062 282.75 847.5 334.292969 847.5 397.875 C 847.5 461.457031 795.789062 513 732 513 C 714.988281 513 698.804688 509.328125 684.234375 502.722656 L 638.621094 511.226562 C 626.523438 513.484375 615.988281 502.800781 618.464844 490.78125 L 627.488281 446.945312 C 620.4375 432.046875 616.5 415.402344 616.5 397.875 Z M 616.5 397.875 " fill-opacity="1" fill-rule="evenodd"/></g><path fill="#814a23" d="M 743.550781 374.851562 L 743.550781 455.4375 L 720.449219 455.4375 L 720.449219 386.363281 L 708.898438 386.363281 L 708.898438 363.335938 L 732 363.335938 C 738.378906 363.335938 743.550781 368.492188 743.550781 374.851562 Z M 743.550781 374.851562 " fill-opacity="1" fill-rule="evenodd"/><path fill="#814a23" d="M 708.898438 443.925781 L 755.101562 443.925781 L 755.101562 466.949219 L 708.898438 466.949219 Z M 708.898438 443.925781 " fill-opacity="1" fill-rule="evenodd"/><path fill="#814a23" d="M 720.449219 328.800781 L 743.550781 328.800781 L 743.550781 346.070312 L 720.449219 346.070312 Z M 720.449219 328.800781 " fill-opacity="1" fill-rule="evenodd"/><g fill="#bda18e" fill-opacity="1"><g transform="translate(675.50974, 544.350041)"><g><path d="M 8.71875 -16.796875 C 10.820312 -16.796875 12.550781 -16.367188 13.90625 -15.515625 C 15.269531 -14.660156 15.972656 -13.394531 16.015625 -11.71875 L 16.015625 -11.421875 L 11.046875 -11.421875 L 11.046875 -11.515625 C 11.046875 -11.992188 10.867188 -12.394531 10.515625 -12.71875 C 10.160156 -13.039062 9.625 -13.203125 8.90625 -13.203125 C 8.195312 -13.203125 7.65625 -13.097656 7.28125 -12.890625 C 6.90625 -12.679688 6.71875 -12.425781 6.71875 -12.125 C 6.71875 -11.6875 6.972656 -11.363281 7.484375 -11.15625 C 7.992188 -10.945312 8.816406 -10.734375 9.953125 -10.515625 C 11.285156 -10.242188 12.378906 -9.957031 13.234375 -9.65625 C 14.085938 -9.363281 14.832031 -8.878906 15.46875 -8.203125 C 16.113281 -7.535156 16.445312 -6.625 16.46875 -5.46875 C 16.46875 -3.519531 15.804688 -2.070312 14.484375 -1.125 C 13.160156 -0.1875 11.394531 0.28125 9.1875 0.28125 C 6.613281 0.28125 4.609375 -0.144531 3.171875 -1 C 1.742188 -1.863281 1.03125 -3.394531 1.03125 -5.59375 L 6.046875 -5.59375 C 6.046875 -4.757812 6.257812 -4.203125 6.6875 -3.921875 C 7.125 -3.640625 7.800781 -3.5 8.71875 -3.5 C 9.382812 -3.5 9.9375 -3.570312 10.375 -3.71875 C 10.820312 -3.863281 11.046875 -4.160156 11.046875 -4.609375 C 11.046875 -5.003906 10.800781 -5.300781 10.3125 -5.5 C 9.820312 -5.707031 9.023438 -5.921875 7.921875 -6.140625 C 6.578125 -6.429688 5.460938 -6.734375 4.578125 -7.046875 C 3.703125 -7.359375 2.9375 -7.875 2.28125 -8.59375 C 1.625 -9.3125 1.296875 -10.285156 1.296875 -11.515625 C 1.296875 -13.328125 1.992188 -14.660156 3.390625 -15.515625 C 4.796875 -16.367188 6.570312 -16.796875 8.71875 -16.796875 Z M 8.71875 -16.796875 "/></g></g></g><g fill="#bda18e" fill-opacity="1"><g transform="translate(692.82925, 544.350041)"><g><path d="M 9.984375 -16.796875 C 12.828125 -16.796875 15.023438 -16.066406 16.578125 -14.609375 C 18.128906 -13.160156 18.90625 -11.039062 18.90625 -8.25 C 18.90625 -5.46875 18.128906 -3.347656 16.578125 -1.890625 C 15.023438 -0.441406 12.828125 0.28125 9.984375 0.28125 C 7.140625 0.28125 4.941406 -0.441406 3.390625 -1.890625 C 1.847656 -3.335938 1.078125 -5.457031 1.078125 -8.25 C 1.078125 -11.050781 1.847656 -13.175781 3.390625 -14.625 C 4.941406 -16.070312 7.140625 -16.796875 9.984375 -16.796875 Z M 9.984375 -12.84375 C 8.847656 -12.84375 7.984375 -12.5 7.390625 -11.8125 C 6.796875 -11.125 6.5 -10.195312 6.5 -9.03125 L 6.5 -7.484375 C 6.5 -6.316406 6.796875 -5.390625 7.390625 -4.703125 C 7.984375 -4.015625 8.847656 -3.671875 9.984375 -3.671875 C 11.117188 -3.671875 11.984375 -4.015625 12.578125 -4.703125 C 13.179688 -5.390625 13.484375 -6.316406 13.484375 -7.484375 L 13.484375 -9.03125 C 13.484375 -10.195312 13.179688 -11.125 12.578125 -11.8125 C 11.984375 -12.5 11.117188 -12.84375 9.984375 -12.84375 Z M 9.984375 -12.84375 "/></g></g></g><g fill="#bda18e" fill-opacity="1"><g transform="translate(712.811457, 544.350041)"><g><path d="M 12.765625 -16.515625 C 13.597656 -16.515625 14.363281 -16.34375 15.0625 -16 C 15.757812 -15.65625 16.3125 -15.171875 16.71875 -14.546875 C 17.125 -13.921875 17.328125 -13.222656 17.328125 -12.453125 C 17.328125 -10.421875 16.40625 -9.140625 14.5625 -8.609375 L 14.5625 -8.515625 C 16.664062 -8.035156 17.71875 -6.660156 17.71875 -4.390625 C 17.71875 -3.523438 17.503906 -2.757812 17.078125 -2.09375 C 16.648438 -1.4375 16.066406 -0.921875 15.328125 -0.546875 C 14.597656 -0.179688 13.789062 0 12.90625 0 L 1.78125 0 L 1.78125 -16.515625 Z M 7.078125 -10.078125 L 10.734375 -10.078125 C 11.078125 -10.078125 11.363281 -10.203125 11.59375 -10.453125 C 11.832031 -10.703125 11.953125 -11.007812 11.953125 -11.375 L 11.953125 -11.609375 C 11.953125 -11.960938 11.832031 -12.265625 11.59375 -12.515625 C 11.351562 -12.765625 11.066406 -12.890625 10.734375 -12.890625 L 7.078125 -12.890625 Z M 7.078125 -3.84375 L 11.109375 -3.84375 C 11.460938 -3.84375 11.753906 -3.960938 11.984375 -4.203125 C 12.222656 -4.453125 12.34375 -4.765625 12.34375 -5.140625 L 12.34375 -5.375 C 12.34375 -5.738281 12.222656 -6.046875 11.984375 -6.296875 C 11.753906 -6.546875 11.460938 -6.671875 11.109375 -6.671875 L 7.078125 -6.671875 Z M 7.078125 -3.84375 "/></g></g></g><g fill="#bda18e" fill-opacity="1"><g transform="translate(731.474309, 544.350041)"><g><path d="M 17.453125 -11.453125 C 17.453125 -10.441406 17.175781 -9.523438 16.625 -8.703125 C 16.082031 -7.890625 15.289062 -7.289062 14.25 -6.90625 L 17.921875 0 L 11.96875 0 L 9.046875 -6.03125 L 7.078125 -6.03125 L 7.078125 0 L 1.78125 0 L 1.78125 -16.515625 L 11.875 -16.515625 C 13.0625 -16.515625 14.070312 -16.285156 14.90625 -15.828125 C 15.75 -15.367188 16.382812 -14.75 16.8125 -13.96875 C 17.238281 -13.195312 17.453125 -12.359375 17.453125 -11.453125 Z M 12.046875 -11.234375 C 12.046875 -11.660156 11.898438 -12.019531 11.609375 -12.3125 C 11.328125 -12.601562 10.976562 -12.75 10.5625 -12.75 L 7.078125 -12.75 L 7.078125 -9.703125 L 10.5625 -9.703125 C 10.976562 -9.703125 11.328125 -9.847656 11.609375 -10.140625 C 11.898438 -10.429688 12.046875 -10.796875 12.046875 -11.234375 Z M 12.046875 -11.234375 "/></g></g></g><g fill="#bda18e" fill-opacity="1"><g transform="translate(750.137161, 544.350041)"><g><path d="M 1.78125 -16.515625 L 16.0625 -16.515625 L 16.0625 -12.546875 L 7.078125 -12.546875 L 7.078125 -10.265625 L 14.765625 -10.265625 L 14.765625 -6.484375 L 7.078125 -6.484375 L 7.078125 -3.953125 L 16.21875 -3.953125 L 16.21875 0 L 1.78125 0 Z M 1.78125 -16.515625 "/></g></g></g></svg>